<svg xmlns:xlink="http://www.w3.org/1999/xlink" xmlns="http://www.w3.org/2000/svg" version="1.1" id="图层_1" x="0" y="0" viewBox="0 0 858 510" style="enable-background:new 0 0 858 510"><style>.st0{fill:#fff}.st7{fill:#438beb}.st8{fill:#a3d3ff}.st9{fill:#c0e4ff}.st10{fill:#78b6f9}.st11{fill:#86c5fc}.st12{fill:none;stroke:#438beb;stroke-width:2px;stroke-linecap:round;stroke-linejoin:round;stroke-miterlimit:10}.st14{fill:#e9f2ff}.st15{fill:#3c85c6}.st17{fill:#52a372}.st18{fill:#75cc98}.st19{fill:#3e845b}.st21{fill:#74843d}.st31{fill:#e3f4ff}</style><path class="st0" d="M0 0h858v510H0z"/><linearGradient id="SVGID_1_" gradientUnits="userSpaceOnUse" x1="584.33" y1="371.06" x2="688.72" y2="371.06" gradientTransform="matrix(1 0 0 -1 0 512)"><stop offset="0" style="stop-color:#fff"/><stop offset="1" style="stop-color:#438beb"/></linearGradient><path d="M670.96 137.92c-3.24 0-6.27.71-8.88 1.92-2.61-1.21-5.64-1.92-8.88-1.92-1.97 0-3.86.27-5.63.74-5.11-5.43-13.22-8.94-22.35-8.94-10.94 0-20.41 5.04-25.01 12.38-.96-.18-1.95-.29-2.97-.29-7.13 0-12.91 4.64-12.91 10.35h104.39c0-7.86-7.95-14.24-17.76-14.24z" style="opacity:.2;fill:url(#SVGID_1_);enable-background:new"/><linearGradient id="SVGID_2_" gradientUnits="userSpaceOnUse" x1="60.07" y1="350.81" x2="115.5" y2="350.81" gradientTransform="matrix(1 0 0 -1 0 512)"><stop offset="0" style="stop-color:#fff"/><stop offset="1" style="stop-color:#438beb"/></linearGradient><path d="M106.06 158.76c-1.72 0-3.33.57-4.71 1.54-1.39-.98-3-1.54-4.71-1.54-1.05 0-2.05.22-2.99.6-2.71-4.36-7.02-7.19-11.87-7.19-5.81 0-10.84 4.05-13.28 9.95a5.54 5.54 0 0 0-1.58-.23c-3.78 0-6.85 3.72-6.85 8.32h55.43c-.01-6.33-4.24-11.45-9.44-11.45z" style="opacity:.2;fill:url(#SVGID_2_);enable-background:new"/><linearGradient id="SVGID_3_" gradientUnits="userSpaceOnUse" x1="129.51" y1="458.305" x2="233.74" y2="458.305" gradientTransform="matrix(1 0 0 -1 0 512)"><stop offset="0" style="stop-color:#fff"/><stop offset="1" style="stop-color:#438beb"/></linearGradient><path d="M216.01 49.93c-3.23 0-6.26.88-8.87 2.39a17.643 17.643 0 0 0-8.87-2.39c-1.97 0-3.85.33-5.62.93-5.1-6.76-13.2-11.13-22.32-11.13-10.92 0-20.38 6.27-24.97 15.41-.95-.23-1.94-.36-2.97-.36-7.12 0-12.88 5.77-12.88 12.88h104.23c0-9.79-7.94-17.73-17.73-17.73z" style="opacity:.2;fill:url(#SVGID_3_);enable-background:new"/><linearGradient id="SVGID_4_" gradientUnits="userSpaceOnUse" x1="206.23" y1="59.37" x2="469.2" y2="59.37" gradientTransform="matrix(1 0 0 -1 0 512)"><stop offset="0" style="stop-color:#aed3f4"/><stop offset=".088" style="stop-color:#b8d8f5"/><stop offset=".485" style="stop-color:#deedfb"/><stop offset=".803" style="stop-color:#f6fafe"/><stop offset="1" style="stop-color:#fff"/></linearGradient><path style="opacity:.5;fill:url(#SVGID_4_);enable-background:new" d="M469.2 470.28H206.23l14.67-35.3h248.3z"/><linearGradient id="SVGID_5_" gradientUnits="userSpaceOnUse" x1="530.77" y1="59.37" x2="858" y2="59.37" gradientTransform="matrix(1 0 0 -1 0 512)"><stop offset="0" style="stop-color:#aed3f4"/><stop offset=".221" style="stop-color:#badaf6"/><stop offset=".623" style="stop-color:#dbebfa"/><stop offset="1" style="stop-color:#fff"/></linearGradient><path style="opacity:.5;fill:url(#SVGID_5_);enable-background:new" d="M858 470.28H530.77l14.67-35.3H858z"/><linearGradient id="SVGID_6_" gradientUnits="userSpaceOnUse" x1="656.54" y1="103.27" x2="858" y2="103.27" gradientTransform="matrix(1 0 0 -1 0 512)"><stop offset="0" style="stop-color:#aed3f4"/><stop offset=".196" style="stop-color:#b3d6f5"/><stop offset=".444" style="stop-color:#c3def7"/><stop offset=".719" style="stop-color:#ddedfa"/><stop offset="1" style="stop-color:#fff"/></linearGradient><path style="opacity:.5;fill:url(#SVGID_6_);enable-background:new" d="M858 414.45H656.54l14.67-11.44H858z"/><path class="st7" d="M611.98 172.14h112v230.87h-112z"/><path class="st8" d="M600.54 183.58h112v230.87h-112z"/><path class="st9" d="M723.98 172.14h-112l-11.44 11.44h112z"/><path class="st7" d="M606.09 203.33h100.89V402.6H606.09z"/><path class="st10" d="M607.75 205.05h97.57v31.53h-97.57z"/><path class="st11" d="M607.75 207.59h97.57v26.44h-97.57z"/><ellipse class="st7" cx="656.54" cy="221.02" rx="5.44" ry="5.5"/><path class="st10" d="M607.75 237.91h97.57v31.53h-97.57z"/><path class="st11" d="M607.75 240.45h97.57v26.44h-97.57z"/><ellipse class="st7" cx="656.54" cy="253.88" rx="5.44" ry="5.5"/><path class="st10" d="M607.75 270.77h97.57v31.53h-97.57z"/><path class="st11" d="M607.75 273.31h97.57v26.44h-97.57z"/><ellipse class="st7" cx="656.54" cy="286.74" rx="5.44" ry="5.5"/><path class="st10" d="M607.75 303.63h97.57v31.53h-97.57z"/><path class="st11" d="M607.75 306.18h97.57v26.44h-97.57z"/><ellipse class="st7" cx="656.54" cy="319.6" rx="5.44" ry="5.5"/><path class="st10" d="M607.75 336.49h97.57v31.53h-97.57z"/><path class="st11" d="M607.75 339.04h97.57v26.44h-97.57z"/><ellipse class="st7" cx="656.54" cy="352.46" rx="5.44" ry="5.5"/><path class="st10" d="M607.75 369.35h97.57v31.53h-97.57z"/><path class="st11" d="M607.75 371.9h97.57v26.44h-97.57z"/><ellipse class="st7" cx="656.54" cy="385.32" rx="5.44" ry="5.5"/><circle class="st7" cx="607.98" cy="193.94" r="1.89"/><circle class="st7" cx="614.05" cy="193.94" r="1.89"/><circle class="st7" cx="620.12" cy="193.94" r="1.89"/><path class="st7" d="M692.41 192.05h-.04a3.64 3.64 0 0 1-3.64-3.64v-4.83h7.33v4.83a3.655 3.655 0 0 1-3.65 3.64zM697.59 180.68h-5.62c-.34 0-.67.14-.91.39l-2.34 2.5h7.33l1.91-2.04c.3-.32.07-.85-.37-.85zM723.98 403.01l-11.44 11.44V183.58l11.44-11.44z"/><path class="st12" d="M598.68 211.35s-24.73-4.16-24.73 24.73v115.96s2.18 26.86-26.86 26.86H411.81"/><path class="st7" d="M594.93 208.2h5.61v6.3h-5.61zM464.6 389.39c-13.33-6.5-52.04-11.2-97.73-11.2s-84.41 4.7-97.73 11.2h-4.96v4.98c0 8.94 45.98 16.18 102.7 16.18s102.7-7.25 102.7-16.18v-4.98h-4.98z"/><ellipse class="st10" cx="366.86" cy="389.39" rx="102.7" ry="16.18"/><path class="st7" d="M348.92 321.45h40.66v63.17h-40.66z"/><path class="st8" d="M344.14 326.22h40.66v63.17h-40.66z"/><path class="st7" d="m384.81 389.39 4.77-4.77v-63.17l-4.77 4.77z"/><path d="M364.52 376.17h-.09c-4.22 0-7.63-3.42-7.63-7.63v-21.45c0-4.22 3.42-7.63 7.63-7.63h.09c4.22 0 7.63 3.42 7.63 7.63v21.45c0 4.21-3.42 7.63-7.63 7.63z" style="fill:#2c76c6"/><path class="st7" d="M546.88 323.86H193.07c-11.87 0-21.48-9.62-21.48-21.48V100.09c0-11.87 9.62-21.48 21.48-21.48h353.81c11.87 0 21.48 9.62 21.48 21.48v202.28c0 11.87-9.62 21.49-21.48 21.49z"/><path class="st8" d="M540.65 330.08H186.84c-11.87 0-21.48-9.62-21.48-21.48V106.32c0-11.87 9.62-21.48 21.48-21.48h353.81c11.87 0 21.48 9.62 21.48 21.48V308.6c.01 11.86-9.61 21.48-21.48 21.48z"/><path class="st0" d="M171.79 310.17V104.75c0-7.45 6.04-13.48 13.48-13.48h356.95c7.45 0 13.48 6.04 13.48 13.48v205.42c0 7.45-6.04 13.48-13.48 13.48H185.28c-7.45 0-13.49-6.04-13.49-13.48z"/><path class="st8" d="M470 129.72H198.98c-5.35 0-9.68-4.34-9.68-9.68v-.11c0-5.35 4.34-9.68 9.68-9.68H470c5.35 0 9.68 4.34 9.68 9.68v.11c0 5.34-4.33 9.68-9.68 9.68z"/><path class="st7" d="M528.52 129.72h-28.31c-5.35 0-9.68-4.34-9.68-9.68v-.11c0-5.35 4.34-9.68 9.68-9.68h28.31c5.35 0 9.68 4.34 9.68 9.68v.11c0 5.34-4.33 9.68-9.68 9.68z"/><path class="st14" d="M235.26 223.24h-37.19c-4.85 0-8.77-3.93-8.77-8.77V151.4c0-4.85 3.93-8.77 8.77-8.77h37.19c4.85 0 8.77 3.93 8.77 8.77v63.07c0 4.84-3.92 8.77-8.77 8.77z"/><path class="st8" d="M212.88 159.82h-16.19c-1.11 0-2.02-.9-2.02-2.02v-.02c0-1.11.9-2.02 2.02-2.02h16.19c1.11 0 2.02.9 2.02 2.02v.02c0 1.12-.91 2.02-2.02 2.02zM225.54 167.5h-28.85c-1.11 0-2.02-.9-2.02-2.02v-.02c0-1.11.9-2.02 2.02-2.02h28.85c1.11 0 2.02.9 2.02 2.02v.02c0 1.12-.91 2.02-2.02 2.02z"/><path class="st14" d="M303.97 223.24h-37.19c-4.85 0-8.77-3.93-8.77-8.77V151.4c0-4.85 3.93-8.77 8.77-8.77h37.19c4.85 0 8.77 3.93 8.77 8.77v63.07c.01 4.84-3.92 8.77-8.77 8.77z"/><path class="st8" d="M281.59 159.82H265.4c-1.11 0-2.02-.9-2.02-2.02v-.02c0-1.11.9-2.02 2.02-2.02h16.19c1.11 0 2.02.9 2.02 2.02v.02c0 1.12-.9 2.02-2.02 2.02zM294.25 167.5H265.4c-1.11 0-2.02-.9-2.02-2.02v-.02c0-1.11.9-2.02 2.02-2.02h28.85c1.11 0 2.02.9 2.02 2.02v.02c0 1.12-.9 2.02-2.02 2.02z"/><path class="st14" d="M372.69 223.24H335.5c-4.85 0-8.77-3.93-8.77-8.77V151.4c0-4.85 3.93-8.77 8.77-8.77h37.19c4.85 0 8.77 3.93 8.77 8.77v63.07c0 4.84-3.93 8.77-8.77 8.77z"/><path class="st8" d="M350.3 159.82h-16.19c-1.11 0-2.02-.9-2.02-2.02v-.02c0-1.11.9-2.02 2.02-2.02h16.19c1.11 0 2.02.9 2.02 2.02v.02c0 1.12-.9 2.02-2.02 2.02zM362.96 167.5h-28.85c-1.11 0-2.02-.9-2.02-2.02v-.02c0-1.11.9-2.02 2.02-2.02h28.85c1.11 0 2.02.9 2.02 2.02v.02c0 1.12-.9 2.02-2.02 2.02z"/><path class="st14" d="M441.4 223.24h-37.19c-4.85 0-8.77-3.93-8.77-8.77V151.4c0-4.85 3.93-8.77 8.77-8.77h37.19c4.85 0 8.77 3.93 8.77 8.77v63.07c0 4.84-3.93 8.77-8.77 8.77z"/><path class="st8" d="M419.02 159.82h-16.19c-1.11 0-2.02-.9-2.02-2.02v-.02c0-1.11.9-2.02 2.02-2.02h16.19c1.11 0 2.02.9 2.02 2.02v.02a2.027 2.027 0 0 1-2.02 2.02zM431.68 167.5h-28.85c-1.11 0-2.02-.9-2.02-2.02v-.02c0-1.11.9-2.02 2.02-2.02h28.85c1.11 0 2.02.9 2.02 2.02v.02a2.027 2.027 0 0 1-2.02 2.02z"/><path class="st14" d="M529.43 311.55H469.6c-4.85 0-8.77-3.93-8.77-8.77V151.39c0-4.85 3.93-8.77 8.77-8.77h59.83c4.85 0 8.77 3.93 8.77 8.77v151.39c0 4.84-3.93 8.77-8.77 8.77zM235.26 311.55h-37.19c-4.85 0-8.77-3.93-8.77-8.77V239.7c0-4.85 3.93-8.77 8.77-8.77h37.19c4.85 0 8.77 3.93 8.77 8.77v63.07c0 4.85-3.92 8.78-8.77 8.78z"/><path class="st8" d="M212.88 248.14h-16.19c-1.11 0-2.02-.9-2.02-2.02v-.02c0-1.11.9-2.02 2.02-2.02h16.19c1.11 0 2.02.9 2.02 2.02v.02c0 1.11-.91 2.02-2.02 2.02zM225.54 255.81h-28.85c-1.11 0-2.02-.9-2.02-2.02v-.02c0-1.11.9-2.02 2.02-2.02h28.85c1.11 0 2.02.9 2.02 2.02v.02c0 1.12-.91 2.02-2.02 2.02z"/><path class="st14" d="M303.97 311.55h-37.19c-4.85 0-8.77-3.93-8.77-8.77V239.7c0-4.85 3.93-8.77 8.77-8.77h37.19c4.85 0 8.77 3.93 8.77 8.77v63.07c.01 4.85-3.92 8.78-8.77 8.78z"/><path class="st8" d="M281.59 248.14H265.4c-1.11 0-2.02-.9-2.02-2.02v-.02c0-1.11.9-2.02 2.02-2.02h16.19c1.11 0 2.02.9 2.02 2.02v.02c0 1.11-.9 2.02-2.02 2.02zM294.25 255.81H265.4c-1.11 0-2.02-.9-2.02-2.02v-.02c0-1.11.9-2.02 2.02-2.02h28.85c1.11 0 2.02.9 2.02 2.02v.02c0 1.12-.9 2.02-2.02 2.02z"/><path class="st14" d="M372.69 311.55H335.5c-4.85 0-8.77-3.93-8.77-8.77V239.7c0-4.85 3.93-8.77 8.77-8.77h37.19c4.85 0 8.77 3.93 8.77 8.77v63.07c0 4.85-3.93 8.78-8.77 8.78z"/><path class="st8" d="M350.3 248.14h-16.19c-1.11 0-2.02-.9-2.02-2.02v-.02c0-1.11.9-2.02 2.02-2.02h16.19c1.11 0 2.02.9 2.02 2.02v.02c0 1.11-.9 2.02-2.02 2.02zM362.96 255.81h-28.85c-1.11 0-2.02-.9-2.02-2.02v-.02c0-1.11.9-2.02 2.02-2.02h28.85c1.11 0 2.02.9 2.02 2.02v.02c0 1.12-.9 2.02-2.02 2.02z"/><path class="st14" d="M441.4 311.55h-37.19c-4.85 0-8.77-3.93-8.77-8.77V239.7c0-4.85 3.93-8.77 8.77-8.77h37.19c4.85 0 8.77 3.93 8.77 8.77v63.07c0 4.85-3.93 8.78-8.77 8.78z"/><path class="st8" d="M419.02 248.14h-16.19c-1.11 0-2.02-.9-2.02-2.02v-.02c0-1.11.9-2.02 2.02-2.02h16.19c1.11 0 2.02.9 2.02 2.02v.02c-.01 1.11-.91 2.02-2.02 2.02zM431.68 255.81h-28.85c-1.11 0-2.02-.9-2.02-2.02v-.02c0-1.11.9-2.02 2.02-2.02h28.85c1.11 0 2.02.9 2.02 2.02v.02a2.027 2.027 0 0 1-2.02 2.02zM493.88 162.64h-17.74c-2.08 0-3.76-1.68-3.76-3.76v-.04c0-2.08 1.68-3.76 3.76-3.76h17.74c2.08 0 3.76 1.68 3.76 3.76v.04c0 2.08-1.68 3.76-3.76 3.76zM493.88 186.71h-17.74c-2.08 0-3.76-1.68-3.76-3.76v-.04c0-2.08 1.68-3.76 3.76-3.76h17.74c2.08 0 3.76 1.68 3.76 3.76v.04c0 2.07-1.68 3.76-3.76 3.76zM493.88 210.78h-17.74c-2.08 0-3.76-1.68-3.76-3.76v-.04c0-2.08 1.68-3.76 3.76-3.76h17.74c2.08 0 3.76 1.68 3.76 3.76v.04c0 2.07-1.68 3.76-3.76 3.76zM493.88 234.85h-17.74c-2.08 0-3.76-1.68-3.76-3.76v-.04c0-2.08 1.68-3.76 3.76-3.76h17.74c2.08 0 3.76 1.68 3.76 3.76v.04c0 2.07-1.68 3.76-3.76 3.76z"/><path class="st15" d="M115.54 343.47h126.79v91.51H115.54zM80.25 470.28l35.29-35.3V343.5l-35.29 35.26z"/><path class="st9" d="m87.5 313.5 28.04 30-35.29 35.26-28.04-30z"/><path style="fill:#4a97d1" d="M115.54 343.5v35.26H80.25z"/><path class="st17" d="M261.13 322.17c.4.6-8.77 3.2-19.32 8.79-10.68 4.97-22.75 12.93-31.11 10.04.25.52 3.13-8.1 12.97-15.04 9.2-6.91 25.36-12.13 37.46-3.79z"/><path class="st18" d="M211.84 340.07c2.63-1.72 5.7-3.75 9.15-5.7s7.28-3.85 11.34-5.52c4.06-1.67 8.37-3.11 12.72-4.27 2.18-.58 4.35-1.12 6.53-1.58 2.17-.48 4.31-.94 6.41-1.35-2.09.46-4.22.94-6.37 1.46-2.16.49-4.33 1.07-6.5 1.68-4.34 1.22-8.63 2.72-12.69 4.46a98.02 98.02 0 0 0-11.32 5.73c-3.44 2.02-6.49 4.13-9.11 5.94-.05-.29-.1-.57-.16-.85z"/><path class="st18" d="M216.15 337.49c1.17.4 2.34.81 3.5 1.23-1.2-.28-2.4-.54-3.59-.79l.09-.44zM221.75 334.09c1.59.4 3.17.84 4.76 1.31-1.63-.34-3.26-.63-4.86-.88.03-.14.07-.29.1-.43zM227.67 330.99c1.98.3 3.97.67 5.97 1.14-2.04-.33-4.07-.56-6.07-.71.04-.15.07-.29.1-.43zM236.51 327.25c1.71.44 3.41.95 5.1 1.54-1.73-.46-3.47-.84-5.21-1.13.03-.14.07-.27.11-.41zM244.73 324.65c1.22.36 2.43.77 3.63 1.22-1.23-.35-2.46-.66-3.69-.91.02-.11.04-.21.06-.31zM250.97 323.15c.78.25 1.56.52 2.33.81-.78-.26-1.56-.49-2.34-.71 0-.03 0-.06.01-.1zM248.54 323.7c.67-.92 1.34-1.83 2.01-2.74l-1.83 2.88c-.06-.05-.12-.1-.18-.14zM241.28 325.69c.82-1.32 1.65-2.64 2.47-3.96-.73 1.38-1.47 2.75-2.21 4.12-.08-.05-.17-.11-.26-.16zM232.63 328.79c.9-1.52 1.82-3.03 2.74-4.53-.81 1.57-1.62 3.14-2.42 4.72a5.37 5.37 0 0 0-.32-.19zM224.72 332.52c.63-1.67 1.26-3.34 1.89-5-.52 1.71-1.05 3.41-1.58 5.11-.1-.03-.21-.07-.31-.11zM218.73 335.89c.58-1.26 1.17-2.51 1.79-3.76-.52 1.31-1.03 2.62-1.53 3.93-.09-.05-.17-.11-.26-.17z"/><path class="st17" d="M49.87 343.75c-.61.52 8.62 5.94 18.48 14.94 10.18 8.38 20.99 20.34 30.99 19.69-.43.48-1.01-9.52-9.69-19.75-8-10-24.08-20.24-39.78-14.88z"/><path class="st18" d="M98.36 377.07c-2.36-2.59-5.11-5.64-8.3-8.71-3.19-3.08-6.8-6.21-10.74-9.16-3.94-2.95-8.21-5.73-12.61-8.22-2.21-1.24-4.42-2.45-6.66-3.57-2.22-1.14-4.42-2.24-6.6-3.3 2.15 1.09 4.32 2.23 6.52 3.4 2.21 1.15 4.41 2.39 6.6 3.67 4.37 2.56 8.61 5.39 12.53 8.42 3.92 3.02 7.5 6.22 10.65 9.37 3.16 3.14 5.86 6.27 8.19 8.95.14-.29.28-.57.42-.85z"/><path class="st18" d="M94.42 373.08c-1.4.09-2.79.18-4.19.29 1.4.06 2.78.12 4.15.2.02-.17.03-.33.04-.49zM89.32 367.84c-1.85-.03-3.71-.03-5.59.01 1.88.12 3.74.28 5.57.48.01-.17.01-.33.02-.49zM83.78 362.82c-2.25-.26-4.54-.44-6.86-.52 2.33.24 4.61.58 6.83 1 .02-.16.03-.32.03-.48zM75.24 356.29c-1.99-.03-4.01.02-6.03.16 2.03.01 4.04.12 6.02.31.01-.16.01-.32.01-.47zM67.04 351.14c-1.43.03-2.88.11-4.32.24 1.44-.02 2.88.01 4.3.1.01-.11.01-.23.02-.34zM60.67 347.74c-.93.04-1.85.1-2.78.19.93-.05 1.85-.07 2.77-.07 0-.04 0-.08.01-.12zM63.16 349.02c-.46-1.17-.92-2.33-1.38-3.5.38 1.2.76 2.39 1.14 3.59l.24-.09zM70.5 353.25c-.5-1.64-1.01-3.29-1.52-4.93.39 1.67.79 3.35 1.18 5.02.11-.03.22-.06.34-.09zM79.02 359.05c-.53-1.88-1.08-3.75-1.65-5.61.42 1.9.83 3.81 1.24 5.71.14-.03.27-.06.41-.1zM86.55 365.31c-.19-1.96-.38-3.91-.58-5.86.06 1.96.13 3.93.2 5.89l.38-.03zM92.08 370.63c-.25-1.5-.53-3.01-.83-4.51.18 1.54.35 3.08.5 4.62.11-.04.22-.07.33-.11zM270.71 282.51c.28.69-9.16.84-21.58 5.41-12.43 4.31-27.83 13.06-39.58 24.93-11.87 11.76-20.09 26.64-21.06 40.68-1.22 14.08 4.79 27.31 15.61 36.64.97.63 1.45-18.09 14.44-40.29 11.61-22.42 35.73-48.32 52.17-67.37z"/><path class="st19" d="M203.46 386.38c-1.84-8.18-2.22-17.03-1.1-26.11 1.14-9.08 3.85-18.44 8.46-27.6 4.6-9.15 11.12-18.12 19.83-26.12 4.34-4 9.29-7.72 14.73-11.09 5.48-3.35 11.53-6.27 18.08-8.67-6.6 2.35-12.73 5.23-18.29 8.55-5.51 3.34-10.56 7.04-14.98 11.04-8.88 7.99-15.58 17-20.33 26.21-4.76 9.22-7.6 18.66-8.84 27.83-1.22 9.18-.91 18.09.91 26.43.5-.16 1.01-.32 1.53-.47z"/><path class="st19" d="M201.41 373.72c-2.21-2.37-4.42-4.72-6.65-7.07 1.98 2.56 3.97 5.11 5.97 7.66.22-.2.45-.4.68-.59zM202.33 358.38c-2.09-3.27-4.17-6.55-6.23-9.83 1.76 3.48 3.56 6.93 5.4 10.36.28-.18.56-.36.83-.53zM206.08 343.56c-1.27-4.17-2.46-8.37-3.56-12.61.74 4.38 1.6 8.72 2.58 13.02.33-.14.65-.28.98-.41zM216.12 323.54c-.34-3.48-.62-6.98-.82-10.49-.2 3.61-.29 7.2-.29 10.78.36-.1.74-.19 1.11-.29zM230.07 307.16c.52-2.39 1.08-4.78 1.7-7.17-.93 2.4-1.8 4.81-2.61 7.22.3-.01.61-.03.91-.05zM243.81 296.4c.76-1.44 1.55-2.87 2.36-4.29-.92 1.41-1.81 2.84-2.67 4.26.1.02.21.03.31.03zM238.11 300.39c3.6-.85 7.24-1.58 10.91-2.18-3.69.48-7.35 1.08-10.99 1.81.02.12.05.24.08.37zM223.54 313.75c4.32-1.57 8.71-2.94 13.17-4.12a150.3 150.3 0 0 0-13.36 3.58c.07.18.13.36.19.54zM211 332.04c3.94-2.37 8.02-4.54 12.21-6.52-4.31 1.75-8.53 3.72-12.63 5.89.15.2.29.41.42.63zM203.77 350.83c3.4-2.34 6.92-4.52 10.53-6.52-3.73 1.77-7.38 3.74-10.94 5.88.14.22.27.43.41.64zM201.44 366.5c1.86-2.28 3.82-4.51 5.88-6.67-2.25 1.99-4.42 4.06-6.5 6.21.2.15.41.31.62.46z"/><path class="st18" d="M52.76 366.81c.05.29 3.37-1.59 8.66-2.57 5.24-1.08 12.45-1.26 19.03.37 6.61 1.56 12.6 4.94 15.89 9.5 3.38 4.53 4.06 10.25 2.25 15.63-.2.41-4.3-5.84-13.49-10.72-8.77-5.24-22.62-9.1-32.34-12.21z"/><path class="st19" d="M98.01 388.32c-1.08-3.15-2.8-6.24-5.1-9.09-2.3-2.85-5.21-5.47-8.74-7.64a37.632 37.632 0 0 0-12.4-4.81c-2.35-.47-4.86-.72-7.46-.75-2.61-.02-5.34.23-8.12.75 2.79-.55 5.54-.83 8.17-.84 2.62.01 5.16.23 7.54.69 4.78.9 9 2.58 12.59 4.74 3.6 2.16 6.57 4.78 8.92 7.64 2.35 2.87 4.12 5.95 5.23 9.16l-.63.15z"/><path class="st19" d="M96.07 383.6c.27-1.25.55-2.51.83-3.76-.15 1.27-.31 2.55-.47 3.82l-.36-.06zM92.52 378.59c.04-1.54.08-3.07.11-4.61.12 1.54.21 3.08.29 4.62-.13-.01-.26-.01-.4-.01zM88.11 374.32c-.43-1.67-.9-3.34-1.41-5.01.66 1.64 1.27 3.29 1.83 4.95l-.42.06zM80.4 369.58c-.61-1.25-1.25-2.5-1.92-3.73.83 1.18 1.61 2.38 2.37 3.6-.15.04-.3.09-.45.13zM72.1 366.87c-.68-.71-1.38-1.4-2.1-2.09.83.63 1.64 1.27 2.43 1.92-.11.06-.22.12-.33.17zM65.05 366.03c-.57-.33-1.14-.66-1.72-.97.62.29 1.23.59 1.83.9-.04.02-.08.05-.11.07zM67.87 366.22c-1.43.45-2.85.94-4.26 1.49a65.29 65.29 0 0 1 4.21-1.63c.02.04.04.09.05.14zM75.76 367.77c-1.83.35-3.65.78-5.46 1.3 1.78-.59 3.58-1.09 5.41-1.52.02.08.03.15.05.22zM83.97 371.42c-1.87 0-3.75.1-5.63.28 1.87-.29 3.75-.48 5.64-.58 0 .1-.01.2-.01.3zM90.44 376.32c-1.68-.1-3.36-.12-5.04-.06 1.67-.16 3.36-.24 5.05-.24-.01.1-.01.2-.01.3zM94.54 381.16c-1.13-.39-2.28-.75-3.45-1.06 1.2.22 2.39.48 3.57.78-.04.09-.08.19-.12.28z"/><path d="M249.78 328.52c-.36.98-9.91-1.32-22.77 6.85-11.85 7.44-26.99 25.33-15.24 49.96-.14.53 5.28-13.01 14.59-25.28 8.79-12.8 21.45-24.32 23.42-31.53z" style="fill:#b5cc76"/><path class="st21" d="M212 382.26c.2-6.72 1.71-13.14 3.94-18.98a64.56 64.56 0 0 1 8.68-15.66c3.43-4.54 7.26-8.35 11.2-11.32 1.96-1.49 3.98-2.75 5.98-3.82 2.01-1.06 4.03-1.88 6.03-2.52-2.02.61-4.07 1.41-6.11 2.43a45.044 45.044 0 0 0-6.07 3.74c-4.01 2.92-7.93 6.68-11.45 11.2a64.886 64.886 0 0 0-9.01 15.63c-2.35 5.86-3.99 12.28-4.31 19.13.37.06.74.11 1.12.17z"/><path class="st21" d="M212.97 372.35c-.89-2.41-1.68-4.85-2.36-7.32.5 2.52 1.12 5.03 1.84 7.51.17-.06.34-.12.52-.19zM216.27 361.99c-.53-2.85-.92-5.71-1.18-8.58.08 2.89.29 5.78.64 8.68.18-.04.36-.07.54-.1zM220.72 353.27c.07-3.02.28-6.01.6-8.95-.5 2.92-.89 5.91-1.14 8.94.18.01.36.01.54.01zM228.21 343.3c.28-2.13.62-4.24 1.01-6.3-.55 2.03-1.06 4.11-1.52 6.23.16.02.33.04.51.07zM235.55 336.54c.36-1.22.73-2.41 1.1-3.58-.49 1.13-.98 2.28-1.46 3.47.12.03.24.07.36.11zM241.22 332.78c.29-.64.58-1.26.86-1.87-.32.6-.65 1.2-.98 1.82.04.01.08.03.12.05zM239.01 334.1l4.18.12c-1.4-.11-2.8-.21-4.2-.32 0 .07.01.14.02.2zM232.4 339.09c1.91-.1 3.83-.2 5.74-.29-1.92-.01-3.84-.03-5.76-.05 0 .11.01.22.02.34zM224.8 347.27c2.12-.52 4.24-1.01 6.36-1.48-2.15.32-4.3.65-6.46.99.04.17.07.33.1.49zM218.35 357.37c2.13-.57 4.26-1.13 6.38-1.68-2.16.39-4.32.77-6.48 1.14.03.18.06.36.1.54zM214.3 367.28c1.47-1 2.96-1.97 4.45-2.92-1.58.79-3.15 1.59-4.72 2.4.1.18.18.35.27.52z"/><path class="st7" d="M171.1 233.83h-30.41c-.28 0-.51-.23-.51-.51v-.58c0-.28.23-.51.51-.51h30.41c.28 0 .51.23.51.51v.58c0 .28-.23.51-.51.51z"/><path class="st7" d="M211.75 431.67H104.93c-2.12 0-3.84-1.72-3.84-3.84V231.07c0-2.12 1.72-3.84 3.84-3.84h106.81c2.12 0 3.84 1.72 3.84 3.84v196.76a3.832 3.832 0 0 1-3.83 3.84z"/><path class="st8" d="M209.95 434.11h-108.1c-1.77 0-3.2-1.43-3.2-3.2V232.86c0-1.77 1.43-3.2 3.2-3.2h108.1c1.77 0 3.2 1.43 3.2 3.2V430.9c0 1.77-1.44 3.21-3.2 3.21z"/><path class="st0" d="M102.1 429.33V236.89c0-.73.59-1.32 1.32-1.32h104.95c.73 0 1.32.59 1.32 1.32v192.44c0 .73-.59 1.32-1.32 1.32H103.42c-.73 0-1.32-.59-1.32-1.32z"/><circle class="st14" cx="118.25" cy="251.8" r="6.38"/><path class="st8" d="M112.73 254.99a6.37 6.37 0 0 0 5.52 3.18 6.37 6.37 0 0 0 5.52-3.18 6.382 6.382 0 0 0-3.79-2.95 2.616 2.616 0 0 0-1.72-4.59 2.616 2.616 0 0 0-1.72 4.59 6.365 6.365 0 0 0-3.81 2.95z"/><path class="st14" d="M185.31 253.43h-54.92c-.58 0-1.04-.47-1.04-1.04v-1.17c0-.58.47-1.04 1.04-1.04h54.92c.58 0 1.04.47 1.04 1.04v1.17c.01.57-.46 1.04-1.04 1.04zM172.06 258.17h-42.19c-.29 0-.52-.23-.52-.52v-.59c0-.29.23-.52.52-.52h42.19c.29 0 .52.23.52.52v.59c0 .29-.24.52-.52.52z"/><circle class="st8" cx="114.46" cy="421.97" r="2.59"/><linearGradient id="SVGID_7_" gradientUnits="userSpaceOnUse" x1="121.77" y1="90.03" x2="126.942" y2="90.03" gradientTransform="matrix(1 0 0 -1 0 512)"><stop offset="0" style="stop-color:#ffe6bb"/><stop offset="1" style="stop-color:#ffdb90"/></linearGradient><circle cx="124.36" cy="421.97" r="2.59" style="fill:url(#SVGID_7_)"/><circle class="st10" cx="134.25" cy="421.97" r="2.59"/><path class="st14" d="M151 324.29h-37.32c-1.47 0-2.65-1.19-2.65-2.65v-52.82c0-1.47 1.19-2.65 2.65-2.65H151c1.47 0 2.65 1.19 2.65 2.65v52.82a2.642 2.642 0 0 1-2.65 2.65z"/><defs><path id="SVGID_8_" d="M151 324.29h-37.32c-1.47 0-2.65-1.19-2.65-2.65v-23.08c0-1.47 1.19-2.65 2.65-2.65H151c1.47 0 2.65 1.19 2.65 2.65v23.08a2.642 2.642 0 0 1-2.65 2.65z"/></defs><clipPath id="SVGID_9_"><use xlink:href="#SVGID_8_" style="overflow:visible"/></clipPath><linearGradient id="SVGID_10_" gradientUnits="userSpaceOnUse" x1="121.04" y1="210.87" x2="128.329" y2="210.87" gradientTransform="matrix(1 0 0 -1 0 512)"><stop offset="0" style="stop-color:#ffe6bb"/><stop offset="1" style="stop-color:#ffdb90"/></linearGradient><circle cx="124.68" cy="301.13" r="3.64" style="clip-path:url(#SVGID_9_);fill:url(#SVGID_10_)"/><defs><path id="SVGID_11_" d="M151 324.29h-37.32c-1.47 0-2.65-1.19-2.65-2.65v-23.08c0-1.47 1.19-2.65 2.65-2.65H151c1.47 0 2.65 1.19 2.65 2.65v23.08a2.642 2.642 0 0 1-2.65 2.65z"/></defs><clipPath id="SVGID_12_"><use xlink:href="#SVGID_11_" style="overflow:visible"/></clipPath><g style="clip-path:url(#SVGID_12_)"><path class="st9" d="M141.25 324.29c0-7.96-6.46-14.42-14.42-14.42s-14.42 6.46-14.42 14.42h28.84z"/><path class="st8" d="M153.66 300.81c-12.97 0-23.48 10.51-23.48 23.48h23.48v-23.48z"/></g><path class="st14" d="M143.62 331.11H111.7a.67.67 0 0 1-.67-.67v-1.72c0-.37.3-.67.67-.67h31.92c.37 0 .67.3.67.67v1.72c-.01.37-.3.67-.67.67zM152.99 334.7H111.7a.67.67 0 0 1-.67-.67v-.72c0-.37.3-.67.67-.67h41.29c.37 0 .67.3.67.67v.72c0 .37-.3.67-.67.67zM198.1 324.29h-37.32c-1.47 0-2.65-1.19-2.65-2.65v-52.82c0-1.47 1.19-2.65 2.65-2.65h37.32c1.47 0 2.65 1.19 2.65 2.65v52.82a2.642 2.642 0 0 1-2.65 2.65z"/><defs><path id="SVGID_13_" d="M198.1 324.29h-37.32c-1.47 0-2.65-1.19-2.65-2.65v-23.08c0-1.47 1.19-2.65 2.65-2.65h37.32c1.47 0 2.65 1.19 2.65 2.65v23.08a2.642 2.642 0 0 1-2.65 2.65z"/></defs><clipPath id="SVGID_14_"><use xlink:href="#SVGID_13_" style="overflow:visible"/></clipPath><linearGradient id="SVGID_15_" gradientUnits="userSpaceOnUse" x1="168.14" y1="210.87" x2="175.429" y2="210.87" gradientTransform="matrix(1 0 0 -1 0 512)"><stop offset="0" style="stop-color:#ffe6bb"/><stop offset="1" style="stop-color:#ffdb90"/></linearGradient><circle cx="171.78" cy="301.13" r="3.64" style="clip-path:url(#SVGID_14_);fill:url(#SVGID_15_)"/><defs><path id="SVGID_16_" d="M198.1 324.29h-37.32c-1.47 0-2.65-1.19-2.65-2.65v-23.08c0-1.47 1.19-2.65 2.65-2.65h37.32c1.47 0 2.65 1.19 2.65 2.65v23.08a2.642 2.642 0 0 1-2.65 2.65z"/></defs><clipPath id="SVGID_17_"><use xlink:href="#SVGID_16_" style="overflow:visible"/></clipPath><g style="clip-path:url(#SVGID_17_)"><path class="st9" d="M188.35 324.29c0-7.96-6.46-14.42-14.42-14.42s-14.42 6.46-14.42 14.42h28.84z"/><path class="st8" d="M200.76 300.81c-12.97 0-23.48 10.51-23.48 23.48h23.48v-23.48z"/></g><path class="st14" d="M190.72 331.11H158.8a.67.67 0 0 1-.67-.67v-1.72c0-.37.3-.67.67-.67h31.92c.37 0 .67.3.67.67v1.72c-.01.37-.3.67-.67.67zM200.09 334.7H158.8a.67.67 0 0 1-.67-.67v-.72c0-.37.3-.67.67-.67h41.29c.37 0 .67.3.67.67v.72c0 .37-.3.67-.67.67zM151 399.88h-37.32c-1.47 0-2.65-1.19-2.65-2.65V344.4c0-1.47 1.19-2.65 2.65-2.65H151c1.47 0 2.65 1.19 2.65 2.65v52.82a2.644 2.644 0 0 1-2.65 2.66z"/><defs><path id="SVGID_18_" d="M151 399.88h-37.32c-1.47 0-2.65-1.19-2.65-2.65v-23.08c0-1.47 1.19-2.65 2.65-2.65H151c1.47 0 2.65 1.19 2.65 2.65v23.08a2.642 2.642 0 0 1-2.65 2.65z"/></defs><clipPath id="SVGID_19_"><use xlink:href="#SVGID_18_" style="overflow:visible"/></clipPath><linearGradient id="SVGID_20_" gradientUnits="userSpaceOnUse" x1="121.04" y1="135.28" x2="128.329" y2="135.28" gradientTransform="matrix(1 0 0 -1 0 512)"><stop offset="0" style="stop-color:#ffe6bb"/><stop offset="1" style="stop-color:#ffdb90"/></linearGradient><circle cx="124.68" cy="376.72" r="3.64" style="clip-path:url(#SVGID_19_);fill:url(#SVGID_20_)"/><defs><path id="SVGID_21_" d="M151 399.88h-37.32c-1.47 0-2.65-1.19-2.65-2.65v-23.08c0-1.47 1.19-2.65 2.65-2.65H151c1.47 0 2.65 1.19 2.65 2.65v23.08a2.642 2.642 0 0 1-2.65 2.65z"/></defs><clipPath id="SVGID_22_"><use xlink:href="#SVGID_21_" style="overflow:visible"/></clipPath><g style="clip-path:url(#SVGID_22_)"><path class="st9" d="M141.25 399.88c0-7.96-6.46-14.42-14.42-14.42s-14.42 6.46-14.42 14.42h28.84z"/><path class="st8" d="M153.66 376.4c-12.97 0-23.48 10.51-23.48 23.48h23.48V376.4z"/></g><path class="st14" d="M143.62 406.7H111.7a.67.67 0 0 1-.67-.67v-1.72c0-.37.3-.67.67-.67h31.92c.37 0 .67.3.67.67v1.72c-.01.37-.3.67-.67.67zM152.99 410.29H111.7a.67.67 0 0 1-.67-.67v-.72c0-.37.3-.67.67-.67h41.29c.37 0 .67.3.67.67v.72c0 .37-.3.67-.67.67zM198.1 399.88h-37.32c-1.47 0-2.65-1.19-2.65-2.65V344.4c0-1.47 1.19-2.65 2.65-2.65h37.32c1.47 0 2.65 1.19 2.65 2.65v52.82a2.644 2.644 0 0 1-2.65 2.66z"/><defs><path id="SVGID_23_" d="M198.1 399.88h-37.32c-1.47 0-2.65-1.19-2.65-2.65v-23.08c0-1.47 1.19-2.65 2.65-2.65h37.32c1.47 0 2.65 1.19 2.65 2.65v23.08a2.642 2.642 0 0 1-2.65 2.65z"/></defs><clipPath id="SVGID_24_"><use xlink:href="#SVGID_23_" style="overflow:visible"/></clipPath><linearGradient id="SVGID_25_" gradientUnits="userSpaceOnUse" x1="168.14" y1="135.28" x2="175.429" y2="135.28" gradientTransform="matrix(1 0 0 -1 0 512)"><stop offset="0" style="stop-color:#ffe6bb"/><stop offset="1" style="stop-color:#ffdb90"/></linearGradient><circle cx="171.78" cy="376.72" r="3.64" style="clip-path:url(#SVGID_24_);fill:url(#SVGID_25_)"/><defs><path id="SVGID_26_" d="M198.1 399.88h-37.32c-1.47 0-2.65-1.19-2.65-2.65v-23.08c0-1.47 1.19-2.65 2.65-2.65h37.32c1.47 0 2.65 1.19 2.65 2.65v23.08a2.642 2.642 0 0 1-2.65 2.65z"/></defs><clipPath id="SVGID_27_"><use xlink:href="#SVGID_26_" style="overflow:visible"/></clipPath><g style="clip-path:url(#SVGID_27_)"><path class="st9" d="M188.35 399.88c0-7.96-6.46-14.42-14.42-14.42s-14.42 6.46-14.42 14.42h28.84z"/><path class="st8" d="M200.76 376.4c-12.97 0-23.48 10.51-23.48 23.48h23.48V376.4z"/></g><path class="st14" d="M190.72 406.7H158.8a.67.67 0 0 1-.67-.67v-1.72c0-.37.3-.67.67-.67h31.92c.37 0 .67.3.67.67v1.72c-.01.37-.3.67-.67.67zM200.09 410.29H158.8a.67.67 0 0 1-.67-.67v-.72c0-.37.3-.67.67-.67h41.29c.37 0 .67.3.67.67v.72c0 .37-.3.67-.67.67z"/><path class="st10" d="M80.25 378.76h126.79v91.51H80.25z"/><path class="st8" d="m207.04 470.28 35.3-35.3V343.5l-35.3 35.26z"/><path class="st9" d="m242.34 343.5 35.29-24.44-35.29 35.26-35.3 24.44z"/><path class="st10" d="M104.45 311.03H88.1c-3.36 0-6.08-2.72-6.08-6.08v-6.76c0-3.36 2.72-6.08 6.08-6.08h16.36c3.36 0 6.08 2.72 6.08 6.08v6.76a6.092 6.092 0 0 1-6.09 6.08z"/><path class="st8" d="M104.26 312.07H86.22c-2.89 0-5.24-2.35-5.24-5.24v-8.44c0-2.89 2.35-5.24 5.24-5.24h18.03c2.89 0 5.24 2.35 5.24 5.24v8.44a5.23 5.23 0 0 1-5.23 5.24z"/><path class="st10" d="M110.5 295.73h5.77l-5.77 4.84z"/><path class="st8" d="M109.5 296.73h5.76l-5.76 4.84z"/><path class="st10" d="m115.26 296.73 1.01-1h-5.77l-1 1z"/><path class="st31" d="M102.08 300.98v.17c-.02.03-.05.06-.06.1-.34 1.61-.67 3.23-1 4.84-.05.22-.09.43-.13.65-.1.59-.47.92-1.02 1.08h-5.92V300.03c0-.2.05-.32.26-.37.27-.06.48-.23.68-.42.4-.39.55-.87.53-1.42-.02-.46.13-.84.46-1.17.26-.26.59-.33.92-.44h.17c.03.02.06.05.1.06.56.1.94.43 1.13.96.27.75.26 1.51.07 2.27-.06.24.01.28.22.27.75-.01 1.51 0 2.26 0 .36 0 .67.13.93.38.25.24.3.54.4.83zM90.47 300.69c.09-.1.07-.24.13-.35.19-.35.46-.56.87-.56.39 0 .77.01 1.16-.01.23-.01.27.08.27.28-.01 2.47 0 4.93 0 7.39 0 .13.01.25.02.38H91.4c-.29-.12-.6-.19-.75-.51-.06-.14-.12-.28-.17-.42-.01-2.06-.01-4.13-.01-6.2z"/><path class="st10" d="M198.82 261.28h-.09c-4.36 0-7.89-3.53-7.89-7.89v-.09c0-4.36 3.53-7.89 7.89-7.89h.09c4.36 0 7.89 3.53 7.89 7.89v.09c0 4.36-3.53 7.89-7.89 7.89z"/><path class="st8" d="M198.19 261.91h-.09c-4.36 0-7.89-3.53-7.89-7.89v-.09c0-4.36 3.53-7.89 7.89-7.89h.09c4.36 0 7.89 3.53 7.89 7.89v.09c0 4.36-3.53 7.89-7.89 7.89z"/><path class="st31" d="M202.27 250.5s0-.03 0 0a2.99 2.99 0 0 0-4.13-.12 2.99 2.99 0 0 0-4.1.09c-1.15 1.15-1.18 3.01-.03 4.16l.03.03 3.45 3.42c.37.37.96.37 1.34 0l3.45-3.42a2.948 2.948 0 0 0-.01-4.16z"/><path class="st8" d="M195.35 261v1.89c0 .38.42.61.74.41l3.54-2.19-4.28-.11z"/><path class="st12" d="M227.93 449.38h199.58"/><path class="st7" d="M224.05 446.23h8.21v6.3h-8.21z"/><path class="st15" d="M458.54 367.98h111.49v71.27H458.54zM427.51 470.28l31.03-31.04v-71.23l-31.03 31z"/><path class="st10" d="M427.51 399.01H539v71.27H427.51z"/><path class="st9" d="m507.02 354.58-48.48 13.43-31.03 31 48.48-13.42zM570.04 368.01l-50.51-11.98-31.03 31 50.5 11.98z"/><path class="st8" d="m539 470.28 31.04-31.04v-71.23l-31.04 31z"/></svg>