<?xml version='1.0' encoding='utf-8'?>
<svg xmlns:xlink="http://www.w3.org/1999/xlink" xmlns="http://www.w3.org/2000/svg" version="1.1" id="图层_1" x="0px" y="0px" viewBox="0 0 858 510" style="enable-background:new 0 0 858 510;"> <style type="text/css"> .st0{fill:#FFFFFF;} .st1{opacity:0.2;fill:url(#SVGID_1_);enable-background:new ;} .st2{opacity:0.2;fill:url(#SVGID_2_);enable-background:new ;} .st3{opacity:0.2;fill:url(#SVGID_3_);enable-background:new ;} .st4{opacity:0.5;fill:url(#SVGID_4_);enable-background:new ;} .st5{opacity:0.5;fill:url(#SVGID_5_);enable-background:new ;} .st6{opacity:0.5;fill:url(#SVGID_6_);enable-background:new ;} .st7{fill:#438BEB;} .st8{fill:#A3D3FF;} .st9{fill:#C0E4FF;} .st10{fill:#78B6F9;} .st11{fill:#86C5FC;} .st12{fill:none;stroke:#438BEB;stroke-width:2;stroke-linecap:round;stroke-linejoin:round;stroke-miterlimit:10;} .st13{fill:#2C76C6;} .st14{fill:#E9F2FF;} .st15{fill:#3C85C6;} .st16{fill:#4A97D1;} .st17{fill:#52A372;} .st18{fill:#75CC98;} .st19{fill:#3E845B;} .st20{fill:#B5CC76;} .st21{fill:#74843D;} .st22{fill:url(#SVGID_7_);} .st23{clip-path:url(#SVGID_9_);fill:url(#SVGID_10_);} .st24{clip-path:url(#SVGID_12_);} .st25{clip-path:url(#SVGID_14_);fill:url(#SVGID_15_);} .st26{clip-path:url(#SVGID_17_);} .st27{clip-path:url(#SVGID_19_);fill:url(#SVGID_20_);} .st28{clip-path:url(#SVGID_22_);} .st29{clip-path:url(#SVGID_24_);fill:url(#SVGID_25_);} .st30{clip-path:url(#SVGID_27_);} .st31{fill:#E3F4FF;} </style> <rect x="0" class="st0" width="858" height="510"/> <g> <linearGradient id="SVGID_1_" gradientUnits="userSpaceOnUse" x1="584.3301" y1="371.06" x2="688.7201" y2="371.06" gradientTransform="matrix(1 0 0 -1 0 512)"> <stop offset="0" style="stop-color:#FFFFFF"/> <stop offset="1" style="stop-color:#438BEB"/> </linearGradient> <path class="st1" d="M670.96,137.92c-3.24,0-6.27,0.71-8.88,1.92c-2.61-1.21-5.64-1.92-8.88-1.92c-1.97,0-3.86,0.27-5.63,0.74 c-5.11-5.43-13.22-8.94-22.35-8.94c-10.94,0-20.41,5.04-25.01,12.38c-0.96-0.18-1.95-0.29-2.97-0.29 c-7.13,0-12.91,4.64-12.91,10.35h104.39C688.72,144.3,680.77,137.92,670.96,137.92z"/> <linearGradient id="SVGID_2_" gradientUnits="userSpaceOnUse" x1="60.07" y1="350.81" x2="115.5" y2="350.81" gradientTransform="matrix(1 0 0 -1 0 512)"> <stop offset="0" style="stop-color:#FFFFFF"/> <stop offset="1" style="stop-color:#438BEB"/> </linearGradient> <path class="st2" d="M106.06,158.76c-1.72,0-3.33,0.57-4.71,1.54c-1.39-0.98-3-1.54-4.71-1.54c-1.05,0-2.05,0.22-2.99,0.6 c-2.71-4.36-7.02-7.19-11.87-7.19c-5.81,0-10.84,4.05-13.28,9.95c-0.51-0.15-1.03-0.23-1.58-0.23c-3.78,0-6.85,3.72-6.85,8.32 h55.43C115.49,163.88,111.26,158.76,106.06,158.76z"/> <linearGradient id="SVGID_3_" gradientUnits="userSpaceOnUse" x1="129.51" y1="458.305" x2="233.74" y2="458.305" gradientTransform="matrix(1 0 0 -1 0 512)"> <stop offset="0" style="stop-color:#FFFFFF"/> <stop offset="1" style="stop-color:#438BEB"/> </linearGradient> <path class="st3" d="M216.01,49.93c-3.23,0-6.26,0.88-8.87,2.39c-2.61-1.51-5.63-2.39-8.87-2.39c-1.97,0-3.85,0.33-5.62,0.93 c-5.1-6.76-13.2-11.13-22.32-11.13c-10.92,0-20.38,6.27-24.97,15.41c-0.95-0.23-1.94-0.36-2.97-0.36 c-7.12,0-12.88,5.77-12.88,12.88h104.23C233.74,57.87,225.8,49.93,216.01,49.93z"/> <linearGradient id="SVGID_4_" gradientUnits="userSpaceOnUse" x1="206.23" y1="59.37" x2="469.2" y2="59.37" gradientTransform="matrix(1 0 0 -1 0 512)"> <stop offset="0" style="stop-color:#AED3F4"/> <stop offset="0.0876" style="stop-color:#B8D8F5"/> <stop offset="0.4854" style="stop-color:#DEEDFB"/> <stop offset="0.8035" style="stop-color:#F6FAFE"/> <stop offset="1" style="stop-color:#FFFFFF"/> </linearGradient> <polygon class="st4" points="469.2,470.28 206.23,470.28 220.9,434.98 469.2,434.98 "/> <linearGradient id="SVGID_5_" gradientUnits="userSpaceOnUse" x1="530.77" y1="59.37" x2="858" y2="59.37" gradientTransform="matrix(1 0 0 -1 0 512)"> <stop offset="0" style="stop-color:#AED3F4"/> <stop offset="0.2212" style="stop-color:#BADAF6"/> <stop offset="0.6231" style="stop-color:#DBEBFA"/> <stop offset="1" style="stop-color:#FFFFFF"/> </linearGradient> <polygon class="st5" points="858,470.28 530.77,470.28 545.44,434.98 858,434.98 "/> <linearGradient id="SVGID_6_" gradientUnits="userSpaceOnUse" x1="656.54" y1="103.27" x2="858" y2="103.27" gradientTransform="matrix(1 0 0 -1 0 512)"> <stop offset="0" style="stop-color:#AED3F4"/> <stop offset="0.1958" style="stop-color:#B3D6F5"/> <stop offset="0.4436" style="stop-color:#C3DEF7"/> <stop offset="0.7193" style="stop-color:#DDEDFA"/> <stop offset="1" style="stop-color:#FFFFFF"/> </linearGradient> <polygon class="st6" points="858,414.45 656.54,414.45 671.21,403.01 858,403.01 "/> <g> <rect x="611.98" y="172.14" class="st7" width="112" height="230.87"/> <rect x="600.54" y="183.58" class="st8" width="112" height="230.87"/> <polygon class="st9" points="723.98,172.14 611.98,172.14 600.54,183.58 712.54,183.58 "/> <rect x="606.09" y="203.33" class="st7" width="100.89" height="199.27"/> <g> <g> <g> <rect x="607.75" y="205.05" class="st10" width="97.57" height="31.53"/> </g> <rect x="607.75" y="207.59" class="st11" width="97.57" height="26.44"/> <ellipse class="st7" cx="656.54" cy="221.02" rx="5.44" ry="5.5"/> </g> <g> <g> <rect x="607.75" y="237.91" class="st10" width="97.57" height="31.53"/> </g> <rect x="607.75" y="240.45" class="st11" width="97.57" height="26.44"/> <ellipse class="st7" cx="656.54" cy="253.88" rx="5.44" ry="5.5"/> </g> <g> <g> <rect x="607.75" y="270.77" class="st10" width="97.57" height="31.53"/> </g> <rect x="607.75" y="273.31" class="st11" width="97.57" height="26.44"/> <ellipse class="st7" cx="656.54" cy="286.74" rx="5.44" ry="5.5"/> </g> <g> <g> <rect x="607.75" y="303.63" class="st10" width="97.57" height="31.53"/> </g> <rect x="607.75" y="306.18" class="st11" width="97.57" height="26.44"/> <ellipse class="st7" cx="656.54" cy="319.6" rx="5.44" ry="5.5"/> </g> <g> <g> <rect x="607.75" y="336.49" class="st10" width="97.57" height="31.53"/> </g> <rect x="607.75" y="339.04" class="st11" width="97.57" height="26.44"/> <ellipse class="st7" cx="656.54" cy="352.46" rx="5.44" ry="5.5"/> </g> <g> <g> <rect x="607.75" y="369.35" class="st10" width="97.57" height="31.53"/> </g> <rect x="607.75" y="371.9" class="st11" width="97.57" height="26.44"/> <ellipse class="st7" cx="656.54" cy="385.32" rx="5.44" ry="5.5"/> </g> </g> <circle class="st7" cx="607.98" cy="193.94" r="1.89"/> <circle class="st7" cx="614.05" cy="193.94" r="1.89"/> <circle class="st7" cx="620.12" cy="193.94" r="1.89"/> <path class="st7" d="M692.41,192.05h-0.04c-2.01,0-3.64-1.63-3.64-3.64v-4.83h7.33v4.83 C696.05,190.42,694.42,192.05,692.41,192.05z"/> <path class="st7" d="M697.59,180.68h-5.62c-0.34,0-0.67,0.14-0.91,0.39l-2.34,2.5h7.33l1.91-2.04 C698.26,181.21,698.03,180.68,697.59,180.68z"/> <polygon class="st7" points="723.98,403.01 712.54,414.45 712.54,183.58 723.98,172.14 "/> </g> <path class="st12" d="M598.68,211.35c0,0-24.73-4.16-24.73,24.73s0,115.96,0,115.96s2.18,26.86-26.86,26.86H411.81"/> <rect x="594.93" y="208.2" class="st7" width="5.61" height="6.3"/> <path class="st7" d="M464.6,389.39c-13.33-6.5-52.04-11.2-97.73-11.2s-84.41,4.7-97.73,11.2h-4.96v4.98 c0,8.94,45.98,16.18,102.7,16.18s102.7-7.25,102.7-16.18v-4.98H464.6z"/> <ellipse class="st10" cx="366.86" cy="389.39" rx="102.7" ry="16.18"/> <g> <rect x="348.92" y="321.45" class="st7" width="40.66" height="63.17"/> <rect x="344.14" y="326.22" class="st8" width="40.66" height="63.17"/> <polygon class="st7" points="384.81,389.39 389.58,384.62 389.58,321.45 384.81,326.22 "/> <path class="st13" d="M364.52,376.17h-0.09c-4.22,0-7.63-3.42-7.63-7.63v-21.45c0-4.22,3.42-7.63,7.63-7.63h0.09 c4.22,0,7.63,3.42,7.63,7.63v21.45C372.15,372.75,368.73,376.17,364.52,376.17z"/> </g> <path class="st7" d="M546.88,323.86H193.07c-11.87,0-21.48-9.62-21.48-21.48V100.09c0-11.87,9.62-21.48,21.48-21.48h353.81 c11.87,0,21.48,9.62,21.48,21.48v202.28C568.36,314.24,558.74,323.86,546.88,323.86z"/> <path class="st8" d="M540.65,330.08H186.84c-11.87,0-21.48-9.62-21.48-21.48V106.32c0-11.87,9.62-21.48,21.48-21.48h353.81 c11.87,0,21.48,9.62,21.48,21.48V308.6C562.14,320.46,552.52,330.08,540.65,330.08z"/> <path class="st0" d="M171.79,310.17V104.75c0-7.45,6.04-13.48,13.48-13.48h356.95c7.45,0,13.48,6.04,13.48,13.48v205.42 c0,7.45-6.04,13.48-13.48,13.48H185.28C177.83,323.65,171.79,317.61,171.79,310.17z"/> <g> <path class="st8" d="M470,129.72H198.98c-5.35,0-9.68-4.34-9.68-9.68v-0.11c0-5.35,4.34-9.68,9.68-9.68H470 c5.35,0,9.68,4.34,9.68,9.68v0.11C479.68,125.38,475.35,129.72,470,129.72z"/> <path class="st7" d="M528.52,129.72h-28.31c-5.35,0-9.68-4.34-9.68-9.68v-0.11c0-5.35,4.34-9.68,9.68-9.68h28.31 c5.35,0,9.68,4.34,9.68,9.68v0.11C538.2,125.38,533.87,129.72,528.52,129.72z"/> </g> <g> <path class="st14" d="M235.26,223.24h-37.19c-4.85,0-8.77-3.93-8.77-8.77V151.4c0-4.85,3.93-8.77,8.77-8.77h37.19 c4.85,0,8.77,3.93,8.77,8.77v63.07C244.03,219.31,240.11,223.24,235.26,223.24z"/> <path class="st8" d="M212.88,159.82h-16.19c-1.11,0-2.02-0.9-2.02-2.02v-0.02c0-1.11,0.9-2.02,2.02-2.02h16.19 c1.11,0,2.02,0.9,2.02,2.02v0.02C214.9,158.92,213.99,159.82,212.88,159.82z"/> <path class="st8" d="M225.54,167.5h-28.85c-1.11,0-2.02-0.9-2.02-2.02v-0.02c0-1.11,0.9-2.02,2.02-2.02h28.85 c1.11,0,2.02,0.9,2.02,2.02v0.02C227.56,166.6,226.65,167.5,225.54,167.5z"/> </g> <g> <path class="st14" d="M303.97,223.24h-37.19c-4.85,0-8.77-3.93-8.77-8.77V151.4c0-4.85,3.93-8.77,8.77-8.77h37.19 c4.85,0,8.77,3.93,8.77,8.77v63.07C312.75,219.31,308.82,223.24,303.97,223.24z"/> <path class="st8" d="M281.59,159.82H265.4c-1.11,0-2.02-0.9-2.02-2.02v-0.02c0-1.11,0.9-2.02,2.02-2.02h16.19 c1.11,0,2.02,0.9,2.02,2.02v0.02C283.61,158.92,282.71,159.82,281.59,159.82z"/> <path class="st8" d="M294.25,167.5H265.4c-1.11,0-2.02-0.9-2.02-2.02v-0.02c0-1.11,0.9-2.02,2.02-2.02h28.85 c1.11,0,2.02,0.9,2.02,2.02v0.02C296.27,166.6,295.37,167.5,294.25,167.5z"/> </g> <g> <path class="st14" d="M372.69,223.24H335.5c-4.85,0-8.77-3.93-8.77-8.77V151.4c0-4.85,3.93-8.77,8.77-8.77h37.19 c4.85,0,8.77,3.93,8.77,8.77v63.07C381.46,219.31,377.53,223.24,372.69,223.24z"/> <path class="st8" d="M350.3,159.82h-16.19c-1.11,0-2.02-0.9-2.02-2.02v-0.02c0-1.11,0.9-2.02,2.02-2.02h16.19 c1.11,0,2.02,0.9,2.02,2.02v0.02C352.32,158.92,351.42,159.82,350.3,159.82z"/> <path class="st8" d="M362.96,167.5h-28.85c-1.11,0-2.02-0.9-2.02-2.02v-0.02c0-1.11,0.9-2.02,2.02-2.02h28.85 c1.11,0,2.02,0.9,2.02,2.02v0.02C364.98,166.6,364.08,167.5,362.96,167.5z"/> </g> <g> <path class="st14" d="M441.4,223.24h-37.19c-4.85,0-8.77-3.93-8.77-8.77V151.4c0-4.85,3.93-8.77,8.77-8.77h37.19 c4.85,0,8.77,3.93,8.77,8.77v63.07C450.17,219.31,446.24,223.24,441.4,223.24z"/> <path class="st8" d="M419.02,159.82h-16.19c-1.11,0-2.02-0.9-2.02-2.02v-0.02c0-1.11,0.9-2.02,2.02-2.02h16.19 c1.11,0,2.02,0.9,2.02,2.02v0.02C421.03,158.92,420.13,159.82,419.02,159.82z"/> <path class="st8" d="M431.68,167.5h-28.85c-1.11,0-2.02-0.9-2.02-2.02v-0.02c0-1.11,0.9-2.02,2.02-2.02h28.85 c1.11,0,2.02,0.9,2.02,2.02v0.02C433.69,166.6,432.79,167.5,431.68,167.5z"/> </g> <g> <path class="st14" d="M529.43,311.55H469.6c-4.85,0-8.77-3.93-8.77-8.77V151.39c0-4.85,3.93-8.77,8.77-8.77h59.83 c4.85,0,8.77,3.93,8.77,8.77v151.39C538.2,307.62,534.27,311.55,529.43,311.55z"/> </g> <g> <path class="st14" d="M235.26,311.55h-37.19c-4.85,0-8.77-3.93-8.77-8.77V239.7c0-4.85,3.93-8.77,8.77-8.77h37.19 c4.85,0,8.77,3.93,8.77,8.77v63.07C244.03,307.62,240.11,311.55,235.26,311.55z"/> <path class="st8" d="M212.88,248.14h-16.19c-1.11,0-2.02-0.9-2.02-2.02v-0.02c0-1.11,0.9-2.02,2.02-2.02h16.19 c1.11,0,2.02,0.9,2.02,2.02v0.02C214.9,247.23,213.99,248.14,212.88,248.14z"/> <path class="st8" d="M225.54,255.81h-28.85c-1.11,0-2.02-0.9-2.02-2.02v-0.02c0-1.11,0.9-2.02,2.02-2.02h28.85 c1.11,0,2.02,0.9,2.02,2.02v0.02C227.56,254.91,226.65,255.81,225.54,255.81z"/> </g> <g> <path class="st14" d="M303.97,311.55h-37.19c-4.85,0-8.77-3.93-8.77-8.77V239.7c0-4.85,3.93-8.77,8.77-8.77h37.19 c4.85,0,8.77,3.93,8.77,8.77v63.07C312.75,307.62,308.82,311.55,303.97,311.55z"/> <path class="st8" d="M281.59,248.14H265.4c-1.11,0-2.02-0.9-2.02-2.02v-0.02c0-1.11,0.9-2.02,2.02-2.02h16.19 c1.11,0,2.02,0.9,2.02,2.02v0.02C283.61,247.23,282.71,248.14,281.59,248.14z"/> <path class="st8" d="M294.25,255.81H265.4c-1.11,0-2.02-0.9-2.02-2.02v-0.02c0-1.11,0.9-2.02,2.02-2.02h28.85 c1.11,0,2.02,0.9,2.02,2.02v0.02C296.27,254.91,295.37,255.81,294.25,255.81z"/> </g> <g> <path class="st14" d="M372.69,311.55H335.5c-4.85,0-8.77-3.93-8.77-8.77V239.7c0-4.85,3.93-8.77,8.77-8.77h37.19 c4.85,0,8.77,3.93,8.77,8.77v63.07C381.46,307.62,377.53,311.55,372.69,311.55z"/> <path class="st8" d="M350.3,248.14h-16.19c-1.11,0-2.02-0.9-2.02-2.02v-0.02c0-1.11,0.9-2.02,2.02-2.02h16.19 c1.11,0,2.02,0.9,2.02,2.02v0.02C352.32,247.23,351.42,248.14,350.3,248.14z"/> <path class="st8" d="M362.96,255.81h-28.85c-1.11,0-2.02-0.9-2.02-2.02v-0.02c0-1.11,0.9-2.02,2.02-2.02h28.85 c1.11,0,2.02,0.9,2.02,2.02v0.02C364.98,254.91,364.08,255.81,362.96,255.81z"/> </g> <g> <path class="st14" d="M441.4,311.55h-37.19c-4.85,0-8.77-3.93-8.77-8.77V239.7c0-4.85,3.93-8.77,8.77-8.77h37.19 c4.85,0,8.77,3.93,8.77,8.77v63.07C450.17,307.62,446.24,311.55,441.4,311.55z"/> <path class="st8" d="M419.02,248.14h-16.19c-1.11,0-2.02-0.9-2.02-2.02v-0.02c0-1.11,0.9-2.02,2.02-2.02h16.19 c1.11,0,2.02,0.9,2.02,2.02v0.02C421.03,247.23,420.13,248.14,419.02,248.14z"/> <path class="st8" d="M431.68,255.81h-28.85c-1.11,0-2.02-0.9-2.02-2.02v-0.02c0-1.11,0.9-2.02,2.02-2.02h28.85 c1.11,0,2.02,0.9,2.02,2.02v0.02C433.69,254.91,432.79,255.81,431.68,255.81z"/> </g> <path class="st8" d="M493.88,162.64h-17.74c-2.08,0-3.76-1.68-3.76-3.76v-0.04c0-2.08,1.68-3.76,3.76-3.76h17.74 c2.08,0,3.76,1.68,3.76,3.76v0.04C497.64,160.96,495.96,162.64,493.88,162.64z"/> <path class="st8" d="M493.88,186.71h-17.74c-2.08,0-3.76-1.68-3.76-3.76v-0.04c0-2.08,1.68-3.76,3.76-3.76h17.74 c2.08,0,3.76,1.68,3.76,3.76v0.04C497.64,185.02,495.96,186.71,493.88,186.71z"/> <path class="st8" d="M493.88,210.78h-17.74c-2.08,0-3.76-1.68-3.76-3.76v-0.04c0-2.08,1.68-3.76,3.76-3.76h17.74 c2.08,0,3.76,1.68,3.76,3.76v0.04C497.64,209.09,495.96,210.78,493.88,210.78z"/> <path class="st8" d="M493.88,234.85h-17.74c-2.08,0-3.76-1.68-3.76-3.76v-0.04c0-2.08,1.68-3.76,3.76-3.76h17.74 c2.08,0,3.76,1.68,3.76,3.76v0.04C497.64,233.16,495.96,234.85,493.88,234.85z"/> <g> <g> <rect x="115.54" y="343.47" class="st15" width="126.79" height="91.51"/> <polygon class="st15" points="80.25,470.28 115.54,434.98 115.54,343.5 80.25,378.76 "/> <polygon class="st9" points="87.5,313.5 115.54,343.5 80.25,378.76 52.21,348.76 "/> <polygon class="st16" points="115.54,343.5 115.54,378.76 80.25,378.76 "/> <g> <g> <path class="st17" d="M261.13,322.17c0.4,0.6-8.77,3.2-19.32,8.79c-10.68,4.97-22.75,12.93-31.11,10.04 c0.25,0.52,3.13-8.1,12.97-15.04C232.87,319.05,249.03,313.83,261.13,322.17z"/> <path class="st18" d="M211.84,340.07c2.63-1.72,5.7-3.75,9.15-5.7s7.28-3.85,11.34-5.52c4.06-1.67,8.37-3.11,12.72-4.27 c2.18-0.58,4.35-1.12,6.53-1.58c2.17-0.48,4.31-0.94,6.41-1.35c-2.09,0.46-4.22,0.94-6.37,1.46c-2.16,0.49-4.33,1.07-6.5,1.68 c-4.34,1.22-8.63,2.72-12.69,4.46c-4.06,1.73-7.88,3.7-11.32,5.73c-3.44,2.02-6.49,4.13-9.11,5.94 C211.95,340.63,211.9,340.35,211.84,340.07z"/> <path class="st18" d="M216.15,337.49c1.17,0.4,2.34,0.81,3.5,1.23c-1.2-0.28-2.4-0.54-3.59-0.79 C216.09,337.78,216.12,337.64,216.15,337.49z"/> <path class="st18" d="M221.75,334.09c1.59,0.4,3.17,0.84,4.76,1.31c-1.63-0.34-3.26-0.63-4.86-0.88 C221.68,334.38,221.72,334.23,221.75,334.09z"/> <path class="st18" d="M227.67,330.99c1.98,0.3,3.97,0.67,5.97,1.14c-2.04-0.33-4.07-0.56-6.07-0.71 C227.61,331.27,227.64,331.13,227.67,330.99z"/> <path class="st18" d="M236.51,327.25c1.71,0.44,3.41,0.95,5.1,1.54c-1.73-0.46-3.47-0.84-5.21-1.13 C236.43,327.52,236.47,327.39,236.51,327.25z"/> <path class="st18" d="M244.73,324.65c1.22,0.36,2.43,0.77,3.63,1.22c-1.23-0.35-2.46-0.66-3.69-0.91 C244.69,324.85,244.71,324.75,244.73,324.65z"/> <path class="st18" d="M250.97,323.15c0.78,0.25,1.56,0.52,2.33,0.81c-0.78-0.26-1.56-0.49-2.34-0.71 C250.96,323.22,250.96,323.19,250.97,323.15z"/> <path class="st18" d="M248.54,323.7c0.67-0.92,1.34-1.83,2.01-2.74c-0.61,0.96-1.22,1.92-1.83,2.88 C248.66,323.79,248.6,323.74,248.54,323.7z"/> <path class="st18" d="M241.28,325.69c0.82-1.32,1.65-2.64,2.47-3.96c-0.73,1.38-1.47,2.75-2.21,4.12 C241.46,325.8,241.37,325.74,241.28,325.69z"/> <path class="st18" d="M232.63,328.79c0.9-1.52,1.82-3.03,2.74-4.53c-0.81,1.57-1.62,3.14-2.42,4.72 C232.84,328.91,232.74,328.85,232.63,328.79z"/> <path class="st18" d="M224.72,332.52c0.63-1.67,1.26-3.34,1.89-5c-0.52,1.71-1.05,3.41-1.58,5.11 C224.93,332.6,224.82,332.56,224.72,332.52z"/> <path class="st18" d="M218.73,335.89c0.58-1.26,1.17-2.51,1.79-3.76c-0.52,1.31-1.03,2.62-1.53,3.93 C218.9,336.01,218.82,335.95,218.73,335.89z"/> </g> <g> <path class="st17" d="M49.87,343.75c-0.61,0.52,8.62,5.94,18.48,14.94c10.18,8.38,20.99,20.34,30.99,19.69 c-0.43,0.48-1.01-9.52-9.69-19.75C81.65,348.63,65.57,338.39,49.87,343.75z"/> <path class="st18" d="M98.36,377.07c-2.36-2.59-5.11-5.64-8.3-8.71c-3.19-3.08-6.8-6.21-10.74-9.16 c-3.94-2.95-8.21-5.73-12.61-8.22c-2.21-1.24-4.42-2.45-6.66-3.57c-2.22-1.14-4.42-2.24-6.6-3.3c2.15,1.09,4.32,2.23,6.52,3.4 c2.21,1.15,4.41,2.39,6.6,3.67c4.37,2.56,8.61,5.39,12.53,8.42c3.92,3.02,7.5,6.22,10.65,9.37c3.16,3.14,5.86,6.27,8.19,8.95 C98.08,377.63,98.22,377.35,98.36,377.07z"/> <path class="st18" d="M94.42,373.08c-1.4,0.09-2.79,0.18-4.19,0.29c1.4,0.06,2.78,0.12,4.15,0.2 C94.4,373.4,94.41,373.24,94.42,373.08z"/> <path class="st18" d="M89.32,367.84c-1.85-0.03-3.71-0.03-5.59,0.01c1.88,0.12,3.74,0.28,5.57,0.48 C89.31,368.16,89.31,368,89.32,367.84z"/> <path class="st18" d="M83.78,362.82c-2.25-0.26-4.54-0.44-6.86-0.52c2.33,0.24,4.61,0.58,6.83,1 C83.77,363.14,83.78,362.98,83.78,362.82z"/> <path class="st18" d="M75.24,356.29c-1.99-0.03-4.01,0.02-6.03,0.16c2.03,0.01,4.04,0.12,6.02,0.31 C75.24,356.6,75.24,356.44,75.24,356.29z"/> <path class="st18" d="M67.04,351.14c-1.43,0.03-2.88,0.11-4.32,0.24c1.44-0.02,2.88,0.01,4.3,0.1 C67.03,351.37,67.03,351.25,67.04,351.14z"/> <path class="st18" d="M60.67,347.74c-0.93,0.04-1.85,0.1-2.78,0.19c0.93-0.05,1.85-0.07,2.77-0.07 C60.66,347.82,60.66,347.78,60.67,347.74z"/> <path class="st18" d="M63.16,349.02c-0.46-1.17-0.92-2.33-1.38-3.5c0.38,1.2,0.76,2.39,1.14,3.59 C63,349.08,63.08,349.05,63.16,349.02z"/> <path class="st18" d="M70.5,353.25c-0.5-1.64-1.01-3.29-1.52-4.93c0.39,1.67,0.79,3.35,1.18,5.02 C70.27,353.31,70.38,353.28,70.5,353.25z"/> <path class="st18" d="M79.02,359.05c-0.53-1.88-1.08-3.75-1.65-5.61c0.42,1.9,0.83,3.81,1.24,5.71 C78.75,359.12,78.88,359.09,79.02,359.05z"/> <path class="st18" d="M86.55,365.31c-0.19-1.96-0.38-3.91-0.58-5.86c0.06,1.96,0.13,3.93,0.2,5.89 C86.3,365.33,86.42,365.32,86.55,365.31z"/> <path class="st18" d="M92.08,370.63c-0.25-1.5-0.53-3.01-0.83-4.51c0.18,1.54,0.35,3.08,0.5,4.62 C91.86,370.7,91.97,370.67,92.08,370.63z"/> </g> <g> <path class="st18" d="M270.71,282.51c0.28,0.69-9.16,0.84-21.58,5.41c-12.43,4.31-27.83,13.06-39.58,24.93 c-11.87,11.76-20.09,26.64-21.06,40.68c-1.22,14.08,4.79,27.31,15.61,36.64c0.97,0.63,1.45-18.09,14.44-40.29 C230.15,327.46,254.27,301.56,270.71,282.51z"/> <path class="st19" d="M203.46,386.38c-1.84-8.18-2.22-17.03-1.1-26.11c1.14-9.08,3.85-18.44,8.46-27.6 c4.6-9.15,11.12-18.12,19.83-26.12c4.34-4,9.29-7.72,14.73-11.09c5.48-3.35,11.53-6.27,18.08-8.67 c-6.6,2.35-12.73,5.23-18.29,8.55c-5.51,3.34-10.56,7.04-14.98,11.04c-8.88,7.99-15.58,17-20.33,26.21 c-4.76,9.22-7.6,18.66-8.84,27.83c-1.22,9.18-0.91,18.09,0.91,26.43C202.43,386.69,202.94,386.53,203.46,386.38z"/> <path class="st19" d="M201.41,373.72c-2.21-2.37-4.42-4.72-6.65-7.07c1.98,2.56,3.97,5.11,5.97,7.66 C200.95,374.11,201.18,373.91,201.41,373.72z"/> <path class="st19" d="M202.33,358.38c-2.09-3.27-4.17-6.55-6.23-9.83c1.76,3.48,3.56,6.93,5.4,10.36 C201.78,358.73,202.06,358.55,202.33,358.38z"/> <path class="st19" d="M206.08,343.56c-1.27-4.17-2.46-8.37-3.56-12.61c0.74,4.38,1.6,8.72,2.58,13.02 C205.43,343.83,205.75,343.69,206.08,343.56z"/> <path class="st19" d="M216.12,323.54c-0.34-3.48-0.62-6.98-0.82-10.49c-0.2,3.61-0.29,7.2-0.29,10.78 C215.37,323.73,215.75,323.64,216.12,323.54z"/> <path class="st19" d="M230.07,307.16c0.52-2.39,1.08-4.78,1.7-7.17c-0.93,2.4-1.8,4.81-2.61,7.22 C229.46,307.2,229.77,307.18,230.07,307.16z"/> <path class="st19" d="M243.81,296.4c0.76-1.44,1.55-2.87,2.36-4.29c-0.92,1.41-1.81,2.84-2.67,4.26 C243.6,296.39,243.71,296.4,243.81,296.4z"/> <path class="st19" d="M238.11,300.39c3.6-0.85,7.24-1.58,10.91-2.18c-3.69,0.48-7.35,1.08-10.99,1.81 C238.05,300.14,238.08,300.26,238.11,300.39z"/> <path class="st19" d="M223.54,313.75c4.32-1.57,8.71-2.94,13.17-4.12c-4.51,0.99-8.96,2.18-13.36,3.58 C223.42,313.39,223.48,313.57,223.54,313.75z"/> <path class="st19" d="M211,332.04c3.94-2.37,8.02-4.54,12.21-6.52c-4.31,1.75-8.53,3.72-12.63,5.89 C210.73,331.61,210.87,331.82,211,332.04z"/> <path class="st19" d="M203.77,350.83c3.4-2.34,6.92-4.52,10.53-6.52c-3.73,1.77-7.38,3.74-10.94,5.88 C203.5,350.41,203.63,350.62,203.77,350.83z"/> <path class="st19" d="M201.44,366.5c1.86-2.28,3.82-4.51,5.88-6.67c-2.25,1.99-4.42,4.06-6.5,6.21 C201.02,366.19,201.23,366.35,201.44,366.5z"/> </g> <g> <path class="st18" d="M52.76,366.81c0.05,0.29,3.37-1.59,8.66-2.57c5.24-1.08,12.45-1.26,19.03,0.37 c6.61,1.56,12.6,4.94,15.89,9.5c3.38,4.53,4.06,10.25,2.25,15.63c-0.2,0.41-4.3-5.84-13.49-10.72 C76.33,373.78,62.48,369.92,52.76,366.81z"/> <path class="st19" d="M98.01,388.32c-1.08-3.15-2.8-6.24-5.1-9.09c-2.3-2.85-5.21-5.47-8.74-7.64 c-3.53-2.16-7.68-3.88-12.4-4.81c-2.35-0.47-4.86-0.72-7.46-0.75c-2.61-0.02-5.34,0.23-8.12,0.75 c2.79-0.55,5.54-0.83,8.17-0.84c2.62,0.01,5.16,0.23,7.54,0.69c4.78,0.9,9,2.58,12.59,4.74c3.6,2.16,6.57,4.78,8.92,7.64 c2.35,2.87,4.12,5.95,5.23,9.16C98.43,388.22,98.22,388.27,98.01,388.32z"/> <path class="st19" d="M96.07,383.6c0.27-1.25,0.55-2.51,0.83-3.76c-0.15,1.27-0.31,2.55-0.47,3.82 C96.31,383.64,96.19,383.62,96.07,383.6z"/> <path class="st19" d="M92.52,378.59c0.04-1.54,0.08-3.07,0.11-4.61c0.12,1.54,0.21,3.08,0.29,4.62 C92.79,378.59,92.66,378.59,92.52,378.59z"/> <path class="st19" d="M88.11,374.32c-0.43-1.67-0.9-3.34-1.41-5.01c0.66,1.64,1.27,3.29,1.83,4.95 C88.39,374.28,88.25,374.3,88.11,374.32z"/> <path class="st19" d="M80.4,369.58c-0.61-1.25-1.25-2.5-1.92-3.73c0.83,1.18,1.61,2.38,2.37,3.6 C80.7,369.49,80.55,369.54,80.4,369.58z"/> <path class="st19" d="M72.1,366.87c-0.68-0.71-1.38-1.4-2.1-2.09c0.83,0.63,1.64,1.27,2.43,1.92 C72.32,366.76,72.21,366.82,72.1,366.87z"/> <path class="st19" d="M65.05,366.03c-0.57-0.33-1.14-0.66-1.72-0.97c0.62,0.29,1.23,0.59,1.83,0.9 C65.12,365.98,65.08,366.01,65.05,366.03z"/> <path class="st19" d="M67.87,366.22c-1.43,0.45-2.85,0.94-4.26,1.49c1.39-0.59,2.79-1.14,4.21-1.63 C67.84,366.12,67.86,366.17,67.87,366.22z"/> <path class="st19" d="M75.76,367.77c-1.83,0.35-3.65,0.78-5.46,1.3c1.78-0.59,3.58-1.09,5.41-1.52 C75.73,367.63,75.74,367.7,75.76,367.77z"/> <path class="st19" d="M83.97,371.42c-1.87,0-3.75,0.1-5.63,0.28c1.87-0.29,3.75-0.48,5.64-0.58 C83.98,371.22,83.97,371.32,83.97,371.42z"/> <path class="st19" d="M90.44,376.32c-1.68-0.1-3.36-0.12-5.04-0.06c1.67-0.16,3.36-0.24,5.05-0.24 C90.44,376.12,90.44,376.22,90.44,376.32z"/> <path class="st19" d="M94.54,381.16c-1.13-0.39-2.28-0.75-3.45-1.06c1.2,0.22,2.39,0.48,3.57,0.78 C94.62,380.97,94.58,381.07,94.54,381.16z"/> </g> <g> <path class="st20" d="M249.78,328.52c-0.36,0.98-9.91-1.32-22.77,6.85c-11.85,7.44-26.99,25.33-15.24,49.96 c-0.14,0.53,5.28-13.01,14.59-25.28C235.15,347.25,247.81,335.73,249.78,328.52z"/> <g> <path class="st21" d="M212,382.26c0.2-6.72,1.71-13.14,3.94-18.98c2.24-5.84,5.26-11.12,8.68-15.66 c3.43-4.54,7.26-8.35,11.2-11.32c1.96-1.49,3.98-2.75,5.98-3.82c2.01-1.06,4.03-1.88,6.03-2.52 c-2.02,0.61-4.07,1.41-6.11,2.43c-2.02,1.04-4.07,2.27-6.07,3.74c-4.01,2.92-7.93,6.68-11.45,11.2 c-3.52,4.51-6.65,9.77-9.01,15.63c-2.35,5.86-3.99,12.28-4.31,19.13C211.25,382.15,211.62,382.2,212,382.26z"/> <path class="st21" d="M212.97,372.35c-0.89-2.41-1.68-4.85-2.36-7.32c0.5,2.52,1.12,5.03,1.84,7.51 C212.62,372.48,212.79,372.42,212.97,372.35z"/> <path class="st21" d="M216.27,361.99c-0.53-2.85-0.92-5.71-1.18-8.58c0.08,2.89,0.29,5.78,0.64,8.68 C215.91,362.05,216.09,362.02,216.27,361.99z"/> <path class="st21" d="M220.72,353.27c0.07-3.02,0.28-6.01,0.6-8.95c-0.5,2.92-0.89,5.91-1.14,8.94 C220.36,353.27,220.54,353.27,220.72,353.27z"/> <path class="st21" d="M228.21,343.3c0.28-2.13,0.62-4.24,1.01-6.3c-0.55,2.03-1.06,4.11-1.52,6.23 C227.86,343.25,228.03,343.27,228.21,343.3z"/> <path class="st21" d="M235.55,336.54c0.36-1.22,0.73-2.41,1.1-3.58c-0.49,1.13-0.98,2.28-1.46,3.47 C235.31,336.46,235.43,336.5,235.55,336.54z"/> <path class="st21" d="M241.22,332.78c0.29-0.64,0.58-1.26,0.86-1.87c-0.32,0.6-0.65,1.2-0.98,1.82 C241.14,332.74,241.18,332.76,241.22,332.78z"/> <path class="st21" d="M239.01,334.1c1.39,0.04,2.79,0.08,4.18,0.12c-1.4-0.11-2.8-0.21-4.2-0.32 C238.99,333.97,239,334.04,239.01,334.1z"/> <path class="st21" d="M232.4,339.09c1.91-0.1,3.83-0.2,5.74-0.29c-1.92-0.01-3.84-0.03-5.76-0.05 C232.38,338.86,232.39,338.97,232.4,339.09z"/> <path class="st21" d="M224.8,347.27c2.12-0.52,4.24-1.01,6.36-1.48c-2.15,0.32-4.3,0.65-6.46,0.99 C224.74,346.95,224.77,347.11,224.8,347.27z"/> <path class="st21" d="M218.35,357.37c2.13-0.57,4.26-1.13,6.38-1.68c-2.16,0.39-4.32,0.77-6.48,1.14 C218.28,357.01,218.31,357.19,218.35,357.37z"/> <path class="st21" d="M214.3,367.28c1.47-1,2.96-1.97,4.45-2.92c-1.58,0.79-3.15,1.59-4.72,2.4 C214.13,366.94,214.21,367.11,214.3,367.28z"/> </g> </g> </g> <g> <path class="st7" d="M171.1,233.83h-30.41c-0.28,0-0.51-0.23-0.51-0.51v-0.58c0-0.28,0.23-0.51,0.51-0.51h30.41 c0.28,0,0.51,0.23,0.51,0.51v0.58C171.61,233.6,171.38,233.83,171.1,233.83z"/> <path class="st7" d="M211.75,431.67H104.93c-2.12,0-3.84-1.72-3.84-3.84V231.07c0-2.12,1.72-3.84,3.84-3.84h106.81 c2.12,0,3.84,1.72,3.84,3.84v196.76C215.59,429.94,213.87,431.67,211.75,431.67z"/> <path class="st8" d="M209.95,434.11h-108.1c-1.77,0-3.2-1.43-3.2-3.2V232.86c0-1.77,1.43-3.2,3.2-3.2h108.1 c1.77,0,3.2,1.43,3.2,3.2V430.9C213.15,432.67,211.71,434.11,209.95,434.11z"/> <path class="st0" d="M102.1,429.33V236.89c0-0.73,0.59-1.32,1.32-1.32h104.95c0.73,0,1.32,0.59,1.32,1.32v192.44 c0,0.73-0.59,1.32-1.32,1.32H103.42C102.69,430.65,102.1,430.06,102.1,429.33z"/> <g> <g> <circle class="st14" cx="118.25" cy="251.8" r="6.38"/> <path class="st8" d="M112.73,254.99c1.1,1.9,3.16,3.18,5.52,3.18c2.36,0,4.42-1.28,5.52-3.18c-0.82-1.42-2.18-2.5-3.79-2.95 c0.55-0.48,0.9-1.19,0.9-1.97c0-1.45-1.17-2.62-2.62-2.62c-1.45,0-2.62,1.17-2.62,2.62c0,0.79,0.35,1.49,0.9,1.97 C114.91,252.49,113.55,253.57,112.73,254.99z"/> </g> <path class="st14" d="M185.31,253.43h-54.92c-0.58,0-1.04-0.47-1.04-1.04v-1.17c0-0.58,0.47-1.04,1.04-1.04h54.92 c0.58,0,1.04,0.47,1.04,1.04v1.17C186.36,252.96,185.89,253.43,185.31,253.43z"/> <path class="st14" d="M172.06,258.17h-42.19c-0.29,0-0.52-0.23-0.52-0.52v-0.59c0-0.29,0.23-0.52,0.52-0.52h42.19 c0.29,0,0.52,0.23,0.52,0.52v0.59C172.58,257.94,172.34,258.17,172.06,258.17z"/> </g> <circle class="st8" cx="114.46" cy="421.97" r="2.59"/> <linearGradient id="SVGID_7_" gradientUnits="userSpaceOnUse" x1="121.77" y1="90.03" x2="126.9421" y2="90.03" gradientTransform="matrix(1 0 0 -1 0 512)"> <stop offset="0" style="stop-color:#FFE6BB"/> <stop offset="1" style="stop-color:#FFDB90"/> </linearGradient> <circle class="st22" cx="124.36" cy="421.97" r="2.59"/> <circle class="st10" cx="134.25" cy="421.97" r="2.59"/> <g> <path class="st14" d="M151,324.29h-37.32c-1.47,0-2.65-1.19-2.65-2.65v-52.82c0-1.47,1.19-2.65,2.65-2.65H151 c1.47,0,2.65,1.19,2.65,2.65v52.82C153.66,323.1,152.47,324.29,151,324.29z"/> <g> <g> <defs> <path id="SVGID_8_" d="M151,324.29h-37.32c-1.47,0-2.65-1.19-2.65-2.65v-23.08c0-1.47,1.19-2.65,2.65-2.65H151 c1.47,0,2.65,1.19,2.65,2.65v23.08C153.66,323.1,152.47,324.29,151,324.29z"/> </defs> <clipPath id="SVGID_9_"> <use xlink:href="#SVGID_8_" style="overflow:visible;"/> </clipPath> <linearGradient id="SVGID_10_" gradientUnits="userSpaceOnUse" x1="121.04" y1="210.87" x2="128.3295" y2="210.87" gradientTransform="matrix(1 0 0 -1 0 512)"> <stop offset="0" style="stop-color:#FFE6BB"/> <stop offset="1" style="stop-color:#FFDB90"/> </linearGradient> <circle class="st23" cx="124.68" cy="301.13" r="3.64"/> </g> <g> <defs> <path id="SVGID_11_" d="M151,324.29h-37.32c-1.47,0-2.65-1.19-2.65-2.65v-23.08c0-1.47,1.19-2.65,2.65-2.65H151 c1.47,0,2.65,1.19,2.65,2.65v23.08C153.66,323.1,152.47,324.29,151,324.29z"/> </defs> <clipPath id="SVGID_12_"> <use xlink:href="#SVGID_11_" style="overflow:visible;"/> </clipPath> <g class="st24"> <path class="st9" d="M141.25,324.29c0-7.96-6.46-14.42-14.42-14.42s-14.42,6.46-14.42,14.42H141.25z"/> <path class="st8" d="M153.66,300.81c-12.97,0-23.48,10.51-23.48,23.48h23.48V300.81z"/> </g> </g> </g> <path class="st14" d="M143.62,331.11H111.7c-0.37,0-0.67-0.3-0.67-0.67v-1.72c0-0.37,0.3-0.67,0.67-0.67h31.92 c0.37,0,0.67,0.3,0.67,0.67v1.72C144.28,330.81,143.99,331.11,143.62,331.11z"/> <path class="st14" d="M152.99,334.7H111.7c-0.37,0-0.67-0.3-0.67-0.67v-0.72c0-0.37,0.3-0.67,0.67-0.67h41.29 c0.37,0,0.67,0.3,0.67,0.67v0.72C153.66,334.4,153.36,334.7,152.99,334.7z"/> <path class="st14" d="M198.1,324.29h-37.32c-1.47,0-2.65-1.19-2.65-2.65v-52.82c0-1.47,1.19-2.65,2.65-2.65h37.32 c1.47,0,2.65,1.19,2.65,2.65v52.82C200.76,323.1,199.57,324.29,198.1,324.29z"/> <g> <g> <defs> <path id="SVGID_13_" d="M198.1,324.29h-37.32c-1.47,0-2.65-1.19-2.65-2.65v-23.08c0-1.47,1.19-2.65,2.65-2.65h37.32 c1.47,0,2.65,1.19,2.65,2.65v23.08C200.76,323.1,199.57,324.29,198.1,324.29z"/> </defs> <clipPath id="SVGID_14_"> <use xlink:href="#SVGID_13_" style="overflow:visible;"/> </clipPath> <linearGradient id="SVGID_15_" gradientUnits="userSpaceOnUse" x1="168.14" y1="210.87" x2="175.4295" y2="210.87" gradientTransform="matrix(1 0 0 -1 0 512)"> <stop offset="0" style="stop-color:#FFE6BB"/> <stop offset="1" style="stop-color:#FFDB90"/> </linearGradient> <circle class="st25" cx="171.78" cy="301.13" r="3.64"/> </g> <g> <defs> <path id="SVGID_16_" d="M198.1,324.29h-37.32c-1.47,0-2.65-1.19-2.65-2.65v-23.08c0-1.47,1.19-2.65,2.65-2.65h37.32 c1.47,0,2.65,1.19,2.65,2.65v23.08C200.76,323.1,199.57,324.29,198.1,324.29z"/> </defs> <clipPath id="SVGID_17_"> <use xlink:href="#SVGID_16_" style="overflow:visible;"/> </clipPath> <g class="st26"> <path class="st9" d="M188.35,324.29c0-7.96-6.46-14.42-14.42-14.42s-14.42,6.46-14.42,14.42H188.35z"/> <path class="st8" d="M200.76,300.81c-12.97,0-23.48,10.51-23.48,23.48h23.48V300.81z"/> </g> </g> </g> <path class="st14" d="M190.72,331.11H158.8c-0.37,0-0.67-0.3-0.67-0.67v-1.72c0-0.37,0.3-0.67,0.67-0.67h31.92 c0.37,0,0.67,0.3,0.67,0.67v1.72C191.38,330.81,191.09,331.11,190.72,331.11z"/> <path class="st14" d="M200.09,334.7H158.8c-0.37,0-0.67-0.3-0.67-0.67v-0.72c0-0.37,0.3-0.67,0.67-0.67h41.29 c0.37,0,0.67,0.3,0.67,0.67v0.72C200.76,334.4,200.46,334.7,200.09,334.7z"/> </g> <g> <path class="st14" d="M151,399.88h-37.32c-1.47,0-2.65-1.19-2.65-2.65V344.4c0-1.47,1.19-2.65,2.65-2.65H151 c1.47,0,2.65,1.19,2.65,2.65v52.82C153.66,398.69,152.47,399.88,151,399.88z"/> <g> <g> <defs> <path id="SVGID_18_" d="M151,399.88h-37.32c-1.47,0-2.65-1.19-2.65-2.65v-23.08c0-1.47,1.19-2.65,2.65-2.65H151 c1.47,0,2.65,1.19,2.65,2.65v23.08C153.66,398.69,152.47,399.88,151,399.88z"/> </defs> <clipPath id="SVGID_19_"> <use xlink:href="#SVGID_18_" style="overflow:visible;"/> </clipPath> <linearGradient id="SVGID_20_" gradientUnits="userSpaceOnUse" x1="121.04" y1="135.28" x2="128.3295" y2="135.28" gradientTransform="matrix(1 0 0 -1 0 512)"> <stop offset="0" style="stop-color:#FFE6BB"/> <stop offset="1" style="stop-color:#FFDB90"/> </linearGradient> <circle class="st27" cx="124.68" cy="376.72" r="3.64"/> </g> <g> <defs> <path id="SVGID_21_" d="M151,399.88h-37.32c-1.47,0-2.65-1.19-2.65-2.65v-23.08c0-1.47,1.19-2.65,2.65-2.65H151 c1.47,0,2.65,1.19,2.65,2.65v23.08C153.66,398.69,152.47,399.88,151,399.88z"/> </defs> <clipPath id="SVGID_22_"> <use xlink:href="#SVGID_21_" style="overflow:visible;"/> </clipPath> <g class="st28"> <path class="st9" d="M141.25,399.88c0-7.96-6.46-14.42-14.42-14.42s-14.42,6.46-14.42,14.42H141.25z"/> <path class="st8" d="M153.66,376.4c-12.97,0-23.48,10.51-23.48,23.48h23.48V376.4z"/> </g> </g> </g> <path class="st14" d="M143.62,406.7H111.7c-0.37,0-0.67-0.3-0.67-0.67v-1.72c0-0.37,0.3-0.67,0.67-0.67h31.92 c0.37,0,0.67,0.3,0.67,0.67v1.72C144.28,406.4,143.99,406.7,143.62,406.7z"/> <path class="st14" d="M152.99,410.29H111.7c-0.37,0-0.67-0.3-0.67-0.67v-0.72c0-0.37,0.3-0.67,0.67-0.67h41.29 c0.37,0,0.67,0.3,0.67,0.67v0.72C153.66,409.99,153.36,410.29,152.99,410.29z"/> <path class="st14" d="M198.1,399.88h-37.32c-1.47,0-2.65-1.19-2.65-2.65V344.4c0-1.47,1.19-2.65,2.65-2.65h37.32 c1.47,0,2.65,1.19,2.65,2.65v52.82C200.76,398.69,199.57,399.88,198.1,399.88z"/> <g> <g> <defs> <path id="SVGID_23_" d="M198.1,399.88h-37.32c-1.47,0-2.65-1.19-2.65-2.65v-23.08c0-1.47,1.19-2.65,2.65-2.65h37.32 c1.47,0,2.65,1.19,2.65,2.65v23.08C200.76,398.69,199.57,399.88,198.1,399.88z"/> </defs> <clipPath id="SVGID_24_"> <use xlink:href="#SVGID_23_" style="overflow:visible;"/> </clipPath> <linearGradient id="SVGID_25_" gradientUnits="userSpaceOnUse" x1="168.14" y1="135.28" x2="175.4295" y2="135.28" gradientTransform="matrix(1 0 0 -1 0 512)"> <stop offset="0" style="stop-color:#FFE6BB"/> <stop offset="1" style="stop-color:#FFDB90"/> </linearGradient> <circle class="st29" cx="171.78" cy="376.72" r="3.64"/> </g> <g> <defs> <path id="SVGID_26_" d="M198.1,399.88h-37.32c-1.47,0-2.65-1.19-2.65-2.65v-23.08c0-1.47,1.19-2.65,2.65-2.65h37.32 c1.47,0,2.65,1.19,2.65,2.65v23.08C200.76,398.69,199.57,399.88,198.1,399.88z"/> </defs> <clipPath id="SVGID_27_"> <use xlink:href="#SVGID_26_" style="overflow:visible;"/> </clipPath> <g class="st30"> <path class="st9" d="M188.35,399.88c0-7.96-6.46-14.42-14.42-14.42s-14.42,6.46-14.42,14.42H188.35z"/> <path class="st8" d="M200.76,376.4c-12.97,0-23.48,10.51-23.48,23.48h23.48V376.4z"/> </g> </g> </g> <path class="st14" d="M190.72,406.7H158.8c-0.37,0-0.67-0.3-0.67-0.67v-1.72c0-0.37,0.3-0.67,0.67-0.67h31.92 c0.37,0,0.67,0.3,0.67,0.67v1.72C191.38,406.4,191.09,406.7,190.72,406.7z"/> <path class="st14" d="M200.09,410.29H158.8c-0.37,0-0.67-0.3-0.67-0.67v-0.72c0-0.37,0.3-0.67,0.67-0.67h41.29 c0.37,0,0.67,0.3,0.67,0.67v0.72C200.76,409.99,200.46,410.29,200.09,410.29z"/> </g> </g> <rect x="80.25" y="378.76" class="st10" width="126.79" height="91.51"/> <polygon class="st8" points="207.04,470.28 242.34,434.98 242.34,343.5 207.04,378.76 "/> <polygon class="st9" points="242.34,343.5 277.63,319.06 242.34,354.32 207.04,378.76 "/> </g> <g> <g> <g> <path class="st10" d="M104.45,311.03H88.1c-3.36,0-6.08-2.72-6.08-6.08v-6.76c0-3.36,2.72-6.08,6.08-6.08h16.36 c3.36,0,6.08,2.72,6.08,6.08v6.76C110.53,308.31,107.81,311.03,104.45,311.03z"/> <path class="st8" d="M104.26,312.07H86.22c-2.89,0-5.24-2.35-5.24-5.24v-8.44c0-2.89,2.35-5.24,5.24-5.24h18.03 c2.89,0,5.24,2.35,5.24,5.24v8.44C109.5,309.72,107.15,312.07,104.26,312.07z"/> </g> <polygon class="st10" points="110.5,295.73 116.27,295.73 110.5,300.57 "/> <polygon class="st8" points="109.5,296.73 115.26,296.73 109.5,301.57 "/> <polygon class="st10" points="115.26,296.73 116.27,295.73 110.5,295.73 109.5,296.73 "/> </g> <g> <g> <path class="st31" d="M102.08,300.98v0.17c-0.02,0.03-0.05,0.06-0.06,0.1c-0.34,1.61-0.67,3.23-1,4.84 c-0.05,0.22-0.09,0.43-0.13,0.65c-0.1,0.59-0.47,0.92-1.02,1.08h-5.92c0-1.06,0-2.12,0-3.19c0-1.53,0-3.07,0-4.6 c0-0.2,0.05-0.32,0.26-0.37c0.27-0.06,0.48-0.23,0.68-0.42c0.4-0.39,0.55-0.87,0.53-1.42c-0.02-0.46,0.13-0.84,0.46-1.17 c0.26-0.26,0.59-0.33,0.92-0.44h0.17c0.03,0.02,0.06,0.05,0.1,0.06c0.56,0.1,0.94,0.43,1.13,0.96 c0.27,0.75,0.26,1.51,0.07,2.27c-0.06,0.24,0.01,0.28,0.22,0.27c0.75-0.01,1.51,0,2.26,0c0.36,0,0.67,0.13,0.93,0.38 C101.93,300.39,101.98,300.69,102.08,300.98L102.08,300.98z"/> <path class="st31" d="M90.47,300.69c0.09-0.1,0.07-0.24,0.13-0.35c0.19-0.35,0.46-0.56,0.87-0.56c0.39,0,0.77,0.01,1.16-0.01 c0.23-0.01,0.27,0.08,0.27,0.28c-0.01,2.47,0,4.93,0,7.39c0,0.13,0.01,0.25,0.02,0.38H91.4c-0.29-0.12-0.6-0.19-0.75-0.51 c-0.06-0.14-0.12-0.28-0.17-0.42C90.47,304.83,90.47,302.76,90.47,300.69L90.47,300.69z"/> </g> </g> </g> <g> <path class="st10" d="M198.82,261.28h-0.09c-4.36,0-7.89-3.53-7.89-7.89v-0.09c0-4.36,3.53-7.89,7.89-7.89h0.09 c4.36,0,7.89,3.53,7.89,7.89v0.09C206.71,257.75,203.18,261.28,198.82,261.28z"/> <path class="st8" d="M198.19,261.91h-0.09c-4.36,0-7.89-3.53-7.89-7.89v-0.09c0-4.36,3.53-7.89,7.89-7.89h0.09 c4.36,0,7.89,3.53,7.89,7.89v0.09C206.08,258.38,202.55,261.91,198.19,261.91z"/> <path class="st31" d="M202.27,250.5C202.27,250.5,202.27,250.47,202.27,250.5c-1.15-1.15-2.95-1.18-4.13-0.12 c-1.18-1.06-2.98-1.02-4.1,0.09c-1.15,1.15-1.18,3.01-0.03,4.16l0.03,0.03l3.45,3.42c0.37,0.37,0.96,0.37,1.34,0l3.45-3.42 C203.42,253.51,203.42,251.65,202.27,250.5L202.27,250.5z"/> <path class="st8" d="M195.35,261v1.89c0,0.38,0.42,0.61,0.74,0.41l3.54-2.19L195.35,261z"/> </g> </g> <line class="st12" x1="227.93" y1="449.38" x2="427.51" y2="449.38"/> <rect x="224.05" y="446.23" class="st7" width="8.21" height="6.3"/> <g> <rect x="458.54" y="367.98" class="st15" width="111.49" height="71.27"/> <polygon class="st15" points="427.51,470.28 458.54,439.24 458.54,368.01 427.51,399.01 "/> <rect x="427.51" y="399.01" class="st10" width="111.49" height="71.27"/> <polygon class="st9" points="507.02,354.58 458.54,368.01 427.51,399.01 475.99,385.59 "/> <polygon class="st9" points="570.04,368.01 519.53,356.03 488.5,387.03 539,399.01 "/> <polygon class="st8" points="539,470.28 570.04,439.24 570.04,368.01 539,399.01 "/> </g> </g> </svg>